STARTFONT 2.1
COMMENT This font was automatically resized by bdfresize-1.5
COMMENT   mag_x = 1/1, mag_y = 1/1, blackness = 4
COMMENT "Generated by fontforge, http://fontforge.sourceforge.net"
COMMENT "Based on Siji"
FONT -addy-waffle-Medium-R-Normal--10-100-75-75-M-120-ISO10646-1
SIZE 10 75 75
FONTBOUNDINGBOX 12 12 0 -2
STARTPROPERTIES 28
FOUNDRY "addy"
FAMILY_NAME "waffle"
WEIGHT_NAME "Medium"
SLANT "R"
SETWIDTH_NAME "Normal"
ADD_STYLE_NAME ""
PIXEL_SIZE 10
POINT_SIZE 100
RESOLUTION_X 75
RESOLUTION_Y 75
SPACING "M"
AVERAGE_WIDTH 120
CHARSET_REGISTRY "ISO10646"
CHARSET_ENCODING "1"
FONTNAME_REGISTRY ""
CHARSET_COLLECTIONS "ISO10646-1"
FONT_NAME "wafflemedium"
FACE_NAME "waffle medium"
COPYRIGHT "Copyright (C) 2018 Addy"
FONT_VERSION "1.00"
FONT_ASCENT 8
FONT_DESCENT 2
UNDERLINE_POSITION -1
UNDERLINE_THICKNESS 1
RAW_ASCENT 800
RAW_DESCENT 200
FIGURE_WIDTH -1
_GBDFED_INFO "Edited with gbdfed 1.6."
ENDPROPERTIES
CHARS 786
STARTCHAR U+E000
ENCODING 57344
SWIDTH 1152 0
DWIDTH 12 0
BBX 8 8 2 0
BITMAP
FF
FF
FF
FF
FF
FF
FF
FF
ENDCHAR
STARTCHAR U+E001
ENCODING 57345
SWIDTH 1152 0
DWIDTH 12 0
BBX 8 8 2 0
BITMAP
FF
FF
C3
C3
C3
C3
FF
FF
ENDCHAR
STARTCHAR U+E002
ENCODING 57346
SWIDTH 1152 0
DWIDTH 12 0
BBX 8 8 2 0
BITMAP
F7
F7
F0
F7
F7
F0
F7
F7
ENDCHAR
STARTCHAR U+E003
ENCODING 57347
SWIDTH 1152 0
DWIDTH 12 0
BBX 8 8 2 0
BITMAP
FF
FF
FF
FF
00
DB
DB
DB
ENDCHAR
STARTCHAR U+E004
ENCODING 57348
SWIDTH 1152 0
DWIDTH 12 0
BBX 8 8 2 0
BITMAP
FF
FF
FF
FF
00
FF
00
FF
ENDCHAR
STARTCHAR U+E005
ENCODING 57349
SWIDTH 1152 0
DWIDTH 12 0
BBX 8 8 2 0
BITMAP
DB
DB
00
DB
DB
00
DB
DB
ENDCHAR
STARTCHAR U+E006
ENCODING 57350
SWIDTH 1152 0
DWIDTH 12 0
BBX 8 8 2 0
BITMAP
F7
F7
F7
F7
07
FF
FF
FF
ENDCHAR
STARTCHAR U+E007
ENCODING 57351
SWIDTH 1152 0
DWIDTH 12 0
BBX 8 8 2 0
BITMAP
F7
F7
F7
F7
F0
F5
F4
F5
ENDCHAR
STARTCHAR U+E008
ENCODING 57352
SWIDTH 1152 0
DWIDTH 12 0
BBX 8 8 2 0
BITMAP
F7
F7
F7
F7
F0
F5
F1
F5
ENDCHAR
STARTCHAR U+E009
ENCODING 57353
SWIDTH 1152 0
DWIDTH 12 0
BBX 8 8 2 0
BITMAP
F7
F7
F0
F7
07
F0
F7
F7
ENDCHAR
STARTCHAR U+E00A
ENCODING 57354
SWIDTH 1152 0
DWIDTH 12 0
BBX 8 8 2 0
BITMAP
F7
F7
F7
F7
00
DB
DB
DB
ENDCHAR
STARTCHAR U+E00B
ENCODING 57355
SWIDTH 1152 0
DWIDTH 12 0
BBX 7 9 2 -1
BITMAP
18
14
92
54
38
54
92
14
18
ENDCHAR
STARTCHAR U+E00C
ENCODING 57356
SWIDTH 1152 0
DWIDTH 12 0
BBX 5 8 3 0
BITMAP
20
28
A8
A8
B0
60
20
20
ENDCHAR
STARTCHAR U+E00D
ENCODING 57357
SWIDTH 1152 0
DWIDTH 12 0
BBX 8 8 2 0
BITMAP
18
18
5A
99
99
81
42
3C
ENDCHAR
STARTCHAR U+E00E
ENCODING 57358
SWIDTH 1152 0
DWIDTH 12 0
BBX 8 9 2 -1
BITMAP
18
18
3C
3C
7E
66
E7
C3
81
ENDCHAR
STARTCHAR U+E00F
ENCODING 57359
SWIDTH 1152 0
DWIDTH 12 0
BBX 8 8 2 0
BITMAP
3C
6E
FC
F8
F0
FF
7E
3C
ENDCHAR
STARTCHAR U+E010
ENCODING 57360
SWIDTH 1152 0
DWIDTH 12 0
BBX 8 8 2 0
BITMAP
FF
FF
FF
E7
E7
FF
FF
FF
ENDCHAR
STARTCHAR U+E011
ENCODING 57361
SWIDTH 1152 0
DWIDTH 12 0
BBX 8 8 2 0
BITMAP
FF
F9
F9
FF
FF
9F
9F
FF
ENDCHAR
STARTCHAR U+E012
ENCODING 57362
SWIDTH 1152 0
DWIDTH 12 0
BBX 8 8 2 0
BITMAP
FF
F9
F9
E7
E7
9F
9F
FF
ENDCHAR
STARTCHAR U+E013
ENCODING 57363
SWIDTH 1152 0
DWIDTH 12 0
BBX 8 8 2 0
BITMAP
FF
99
99
FF
FF
99
99
FF
ENDCHAR
STARTCHAR U+E014
ENCODING 57364
SWIDTH 1152 0
DWIDTH 12 0
BBX 8 8 2 0
BITMAP
FF
99
99
E7
E7
99
99
FF
ENDCHAR
STARTCHAR U+E015
ENCODING 57365
SWIDTH 1152 0
DWIDTH 12 0
BBX 8 8 2 0
BITMAP
3C
6E
EF
EF
E1
FF
7E
3C
ENDCHAR
STARTCHAR U+E016
ENCODING 57366
SWIDTH 1152 0
DWIDTH 12 0
BBX 8 8 2 0
BITMAP
3C
42
91
91
9D
81
42
3C
ENDCHAR
STARTCHAR U+E017
ENCODING 57367
SWIDTH 1152 0
DWIDTH 12 0
BBX 8 8 2 0
BITMAP
FF
EF
EF
EF
E1
FF
FF
FF
ENDCHAR
STARTCHAR U+E018
ENCODING 57368
SWIDTH 1152 0
DWIDTH 12 0
BBX 8 8 2 0
BITMAP
FF
81
91
91
9D
81
81
FF
ENDCHAR
STARTCHAR U+E019
ENCODING 57369
SWIDTH 1152 0
DWIDTH 12 0
BBX 8 8 2 0
BITMAP
18
2C
6E
EF
E1
7E
3C
18
ENDCHAR
STARTCHAR U+E01A
ENCODING 57370
SWIDTH 1152 0
DWIDTH 12 0
BBX 8 8 2 0
BITMAP
18
24
52
91
9D
42
24
18
ENDCHAR
STARTCHAR U+E01B
ENCODING 57371
SWIDTH 1152 0
DWIDTH 12 0
BBX 8 8 2 0
BITMAP
13
07
4E
14
68
90
90
60
ENDCHAR
STARTCHAR U+E01C
ENCODING 57372
SWIDTH 1152 0
DWIDTH 12 0
BBX 6 8 3 0
BITMAP
24
70
74
70
54
88
88
70
ENDCHAR
STARTCHAR U+E01D
ENCODING 57373
SWIDTH 1152 0
DWIDTH 12 0
BBX 5 8 3 0
BITMAP
60
78
60
78
60
F0
F0
60
ENDCHAR
STARTCHAR U+E01E
ENCODING 57374
SWIDTH 1152 0
DWIDTH 12 0
BBX 7 8 2 0
BITMAP
7C
FE
82
92
8A
92
82
7C
ENDCHAR
STARTCHAR U+E01F
ENCODING 57375
SWIDTH 1152 0
DWIDTH 12 0
BBX 7 8 2 0
BITMAP
7C
FE
82
BA
82
BA
82
7C
ENDCHAR
STARTCHAR U+E020
ENCODING 57376
SWIDTH 1152 0
DWIDTH 12 0
BBX 7 8 2 0
BITMAP
AA
00
FE
FE
FE
FE
00
AA
ENDCHAR
STARTCHAR U+E021
ENCODING 57377
SWIDTH 1152 0
DWIDTH 12 0
BBX 8 8 2 0
BITMAP
DB
00
FF
FF
FF
FF
00
DB
ENDCHAR
STARTCHAR U+E022
ENCODING 57378
SWIDTH 1152 0
DWIDTH 12 0
BBX 8 8 2 0
BITMAP
C3
BD
7E
7E
7E
7E
BD
C3
ENDCHAR
STARTCHAR U+E023
ENCODING 57379
SWIDTH 1152 0
DWIDTH 12 0
BBX 7 7 2 0
BITMAP
C6
BA
7C
7C
7C
BA
C6
ENDCHAR
STARTCHAR U+E024
ENCODING 57380
SWIDTH 1152 0
DWIDTH 12 0
BBX 8 8 2 0
BITMAP
81
7E
7E
7E
7E
7E
7E
81
ENDCHAR
STARTCHAR U+E025
ENCODING 57381
SWIDTH 1152 0
DWIDTH 12 0
BBX 7 7 2 0
BITMAP
82
7C
7C
7C
7C
7C
82
ENDCHAR
STARTCHAR U+E026
ENCODING 57382
SWIDTH 1152 0
DWIDTH 12 0
BBX 8 8 2 0
BITMAP
DB
C3
3C
BD
BD
3C
C3
DB
ENDCHAR
STARTCHAR U+E027
ENCODING 57383
SWIDTH 1152 0
DWIDTH 12 0
BBX 8 8 2 0
BITMAP
40
5F
7C
66
66
3E
FA
02
ENDCHAR
STARTCHAR U+E028
ENCODING 57384
SWIDTH 1152 0
DWIDTH 12 0
BBX 7 7 2 0
BITMAP
AA
00
FE
FE
FE
00
AA
ENDCHAR
STARTCHAR U+E029
ENCODING 57385
SWIDTH 1152 0
DWIDTH 12 0
BBX 7 8 2 0
BITMAP
7C
82
82
82
FE
FE
FE
FE
ENDCHAR
STARTCHAR U+E02A
ENCODING 57386
SWIDTH 1152 0
DWIDTH 12 0
BBX 7 7 2 0
BITMAP
FE
BA
82
FE
BA
82
FE
ENDCHAR
STARTCHAR U+E02B
ENCODING 57387
SWIDTH 1152 0
DWIDTH 12 0
BBX 8 8 2 0
BITMAP
FF
BD
81
FF
BD
81
81
FF
ENDCHAR
STARTCHAR U+E02C
ENCODING 57388
SWIDTH 1152 0
DWIDTH 12 0
BBX 7 8 2 0
BITMAP
7C
C6
BA
BA
BA
C6
7C
82
ENDCHAR
STARTCHAR U+E02D
ENCODING 57389
SWIDTH 1152 0
DWIDTH 12 0
BBX 8 8 2 0
BITMAP
F8
84
F2
89
E5
95
D5
FF
ENDCHAR
STARTCHAR U+E02E
ENCODING 57390
SWIDTH 1152 0
DWIDTH 12 0
BBX 5 8 3 0
BITMAP
70
70
00
F0
70
70
70
F8
ENDCHAR
STARTCHAR U+E02F
ENCODING 57391
SWIDTH 1152 0
DWIDTH 12 0
BBX 6 8 3 0
BITMAP
78
78
00
F8
78
78
78
FC
ENDCHAR
STARTCHAR U+E030
ENCODING 57392
SWIDTH 1152 0
DWIDTH 12 0
BBX 6 8 3 0
BITMAP
30
FC
84
84
84
84
84
FC
ENDCHAR
STARTCHAR U+E031
ENCODING 57393
SWIDTH 1152 0
DWIDTH 12 0
BBX 6 8 3 0
BITMAP
30
FC
84
84
A4
B4
84
FC
ENDCHAR
STARTCHAR U+E032
ENCODING 57394
SWIDTH 1152 0
DWIDTH 12 0
BBX 6 8 3 0
BITMAP
30
FC
84
A4
B4
B4
84
FC
ENDCHAR
STARTCHAR U+E033
ENCODING 57395
SWIDTH 1152 0
DWIDTH 12 0
BBX 6 8 3 0
BITMAP
30
FC
84
B4
B4
B4
84
FC
ENDCHAR
STARTCHAR U+E034
ENCODING 57396
SWIDTH 1152 0
DWIDTH 12 0
BBX 7 8 2 0
BITMAP
38
FE
82
82
82
82
82
FE
ENDCHAR
STARTCHAR U+E035
ENCODING 57397
SWIDTH 1152 0
DWIDTH 12 0
BBX 7 8 2 0
BITMAP
38
FE
82
82
A2
B2
82
FE
ENDCHAR
STARTCHAR U+E036
ENCODING 57398
SWIDTH 1152 0
DWIDTH 12 0
BBX 7 8 2 0
BITMAP
38
FE
82
A2
B2
BA
82
FE
ENDCHAR
STARTCHAR U+E037
ENCODING 57399
SWIDTH 1152 0
DWIDTH 12 0
BBX 7 8 2 0
BITMAP
38
FE
82
BA
BA
BA
82
FE
ENDCHAR
STARTCHAR U+E038
ENCODING 57400
SWIDTH 1152 0
DWIDTH 12 0
BBX 8 6 2 0
BITMAP
FE
82
83
83
82
FE
ENDCHAR
STARTCHAR U+E039
ENCODING 57401
SWIDTH 1152 0
DWIDTH 12 0
BBX 8 6 2 0
BITMAP
FE
82
A3
B3
82
FE
ENDCHAR
STARTCHAR U+E03A
ENCODING 57402
SWIDTH 1152 0
DWIDTH 12 0
BBX 8 6 2 0
BITMAP
FE
82
B3
BB
82
FE
ENDCHAR
STARTCHAR U+E03B
ENCODING 57403
SWIDTH 1152 0
DWIDTH 12 0
BBX 8 6 2 0
BITMAP
FE
82
BB
BB
82
FE
ENDCHAR
STARTCHAR U+E03C
ENCODING 57404
SWIDTH 1152 0
DWIDTH 12 0
BBX 8 7 2 0
BITMAP
FE
82
83
83
83
82
FE
ENDCHAR
STARTCHAR U+E03D
ENCODING 57405
SWIDTH 1152 0
DWIDTH 12 0
BBX 8 7 2 0
BITMAP
FE
82
83
A3
B3
82
FE
ENDCHAR
STARTCHAR U+E03E
ENCODING 57406
SWIDTH 1152 0
DWIDTH 12 0
BBX 8 7 2 0
BITMAP
FE
82
A3
B3
BB
82
FE
ENDCHAR
STARTCHAR U+E03F
ENCODING 57407
SWIDTH 1152 0
DWIDTH 12 0
BBX 8 7 2 0
BITMAP
FE
82
BB
BB
BB
82
FE
ENDCHAR
STARTCHAR U+E040
ENCODING 57408
SWIDTH 1152 0
DWIDTH 12 0
BBX 6 10 3 -1
BITMAP
08
10
30
60
7C
F8
18
30
20
40
ENDCHAR
STARTCHAR U+E041
ENCODING 57409
SWIDTH 1152 0
DWIDTH 12 0
BBX 6 8 3 0
BITMAP
48
48
FC
FC
FC
78
30
30
ENDCHAR
STARTCHAR U+E042
ENCODING 57410
SWIDTH 1152 0
DWIDTH 12 0
BBX 8 6 2 1
BITMAP
1C
3F
FC
FC
3F
1C
ENDCHAR
STARTCHAR U+E043
ENCODING 57411
SWIDTH 1152 0
DWIDTH 12 0
BBX 8 8 2 0
BITMAP
38
48
8F
88
88
8F
48
38
ENDCHAR
STARTCHAR U+E044
ENCODING 57412
SWIDTH 1152 0
DWIDTH 12 0
BBX 4 4 4 2
BITMAP
10
D0
D0
10
ENDCHAR
STARTCHAR U+E045
ENCODING 57413
SWIDTH 1152 0
DWIDTH 12 0
BBX 6 6 3 1
BITMAP
04
14
D4
D4
14
04
ENDCHAR
STARTCHAR U+E046
ENCODING 57414
SWIDTH 1152 0
DWIDTH 12 0
BBX 8 8 2 0
BITMAP
01
05
15
D5
D5
15
05
01
ENDCHAR
STARTCHAR U+E047
ENCODING 57415
SWIDTH 1152 0
DWIDTH 12 0
BBX 5 6 5 0
BITMAP
18
18
D8
D8
D8
D8
ENDCHAR
STARTCHAR U+E048
ENCODING 57416
SWIDTH 1152 0
DWIDTH 12 0
BBX 8 8 2 0
BITMAP
03
03
1B
1B
DB
DB
DB
DB
ENDCHAR
STARTCHAR U+E049
ENCODING 57417
SWIDTH 1152 0
DWIDTH 12 0
BBX 4 4 4 0
BITMAP
F0
00
60
60
ENDCHAR
STARTCHAR U+E04A
ENCODING 57418
SWIDTH 1152 0
DWIDTH 12 0
BBX 6 6 3 0
BITMAP
FC
00
78
00
30
30
ENDCHAR
STARTCHAR U+E04B
ENCODING 57419
SWIDTH 1152 0
DWIDTH 12 0
BBX 8 8 2 0
BITMAP
FF
00
7E
00
3C
00
18
18
ENDCHAR
STARTCHAR U+E04C
ENCODING 57420
SWIDTH 1152 0
DWIDTH 12 0
BBX 6 8 3 0
BITMAP
30
30
B4
B4
84
78
30
FC
ENDCHAR
STARTCHAR U+E04D
ENCODING 57421
SWIDTH 1152 0
DWIDTH 12 0
BBX 8 8 2 0
BITMAP
3C
42
81
81
81
E7
E7
66
ENDCHAR
STARTCHAR U+E04E
ENCODING 57422
SWIDTH 1152 0
DWIDTH 12 0
BBX 5 8 3 0
BITMAP
08
18
F8
F8
F8
F8
18
08
ENDCHAR
STARTCHAR U+E04F
ENCODING 57423
SWIDTH 1152 0
DWIDTH 12 0
BBX 7 8 3 0
BITMAP
08
18
FA
F4
E8
D0
28
48
ENDCHAR
STARTCHAR U+E050
ENCODING 57424
SWIDTH 1152 0
DWIDTH 12 0
BBX 7 8 2 0
BITMAP
08
18
FA
FA
FA
FA
18
08
ENDCHAR
STARTCHAR U+E051
ENCODING 57425
SWIDTH 1152 0
DWIDTH 12 0
BBX 5 7 3 0
BITMAP
08
18
F8
F8
F8
18
08
ENDCHAR
STARTCHAR U+E052
ENCODING 57426
SWIDTH 1152 0
DWIDTH 12 0
BBX 7 7 2 0
BITMAP
08
18
FA
F4
E8
10
28
ENDCHAR
STARTCHAR U+E053
ENCODING 57427
SWIDTH 1152 0
DWIDTH 12 0
BBX 7 7 2 0
BITMAP
08
18
FA
FA
FA
18
08
ENDCHAR
STARTCHAR U+E054
ENCODING 57428
SWIDTH 1152 0
DWIDTH 12 0
BBX 6 8 3 0
BITMAP
84
8C
9C
BC
BC
9C
8C
84
ENDCHAR
STARTCHAR U+E055
ENCODING 57429
SWIDTH 1152 0
DWIDTH 12 0
BBX 8 8 2 0
BITMAP
11
33
77
FF
FF
77
33
11
ENDCHAR
STARTCHAR U+E056
ENCODING 57430
SWIDTH 1152 0
DWIDTH 12 0
BBX 8 8 2 0
BITMAP
3C
7E
FF
FF
FF
FF
7E
3C
ENDCHAR
STARTCHAR U+E057
ENCODING 57431
SWIDTH 1152 0
DWIDTH 12 0
BBX 8 8 2 0
BITMAP
FF
FF
FF
FF
FF
FF
FF
FF
ENDCHAR
STARTCHAR U+E058
ENCODING 57432
SWIDTH 1152 0
DWIDTH 12 0
BBX 4 8 4 0
BITMAP
80
C0
E0
F0
F0
E0
C0
80
ENDCHAR
STARTCHAR U+E059
ENCODING 57433
SWIDTH 1152 0
DWIDTH 12 0
BBX 5 8 3 0
BITMAP
D8
D8
D8
D8
D8
D8
D8
D8
ENDCHAR
STARTCHAR U+E05A
ENCODING 57434
SWIDTH 1152 0
DWIDTH 12 0
BBX 6 8 3 0
BITMAP
84
C4
E4
F4
F4
E4
C4
84
ENDCHAR
STARTCHAR U+E05B
ENCODING 57435
SWIDTH 1152 0
DWIDTH 12 0
BBX 8 8 2 0
BITMAP
88
CC
EE
FF
FF
EE
CC
88
ENDCHAR
STARTCHAR U+E05C
ENCODING 57436
SWIDTH 1152 0
DWIDTH 12 0
BBX 8 8 2 0
BITMAP
3F
3F
21
21
21
63
E7
C6
ENDCHAR
STARTCHAR U+E05D
ENCODING 57437
SWIDTH 1152 0
DWIDTH 12 0
BBX 8 8 2 0
BITMAP
10
32
F1
F5
F5
F1
32
10
ENDCHAR
STARTCHAR U+E05E
ENCODING 57438
SWIDTH 1152 0
DWIDTH 12 0
BBX 7 6 2 0
BITMAP
88
FC
FE
FE
7C
08
ENDCHAR
STARTCHAR U+E05F
ENCODING 57439
SWIDTH 1152 0
DWIDTH 12 0
BBX 7 6 2 0
BITMAP
22
7E
FE
FE
7C
20
ENDCHAR
STARTCHAR U+E060
ENCODING 57440
SWIDTH 1152 0
DWIDTH 12 0
BBX 8 8 2 0
BITMAP
18
3C
7E
FF
3C
3C
3C
3C
ENDCHAR
STARTCHAR U+E061
ENCODING 57441
SWIDTH 1152 0
DWIDTH 12 0
BBX 8 8 2 0
BITMAP
3C
3C
3C
3C
FF
7E
3C
18
ENDCHAR
STARTCHAR U+E062
ENCODING 57442
SWIDTH 1152 0
DWIDTH 12 0
BBX 8 8 2 0
BITMAP
08
0C
FE
FF
FF
FE
0C
08
ENDCHAR
STARTCHAR U+E063
ENCODING 57443
SWIDTH 1152 0
DWIDTH 12 0
BBX 8 8 2 0
BITMAP
10
30
7F
FF
FF
7F
30
10
ENDCHAR
STARTCHAR U+E064
ENCODING 57444
SWIDTH 1152 0
DWIDTH 12 0
BBX 8 8 2 0
BITMAP
18
3C
7E
FF
3C
3C
3C
1E
ENDCHAR
STARTCHAR U+E065
ENCODING 57445
SWIDTH 1152 0
DWIDTH 12 0
BBX 8 8 2 0
BITMAP
1E
3C
3C
3C
FF
7E
3C
18
ENDCHAR
STARTCHAR U+E066
ENCODING 57446
SWIDTH 1152 0
DWIDTH 12 0
BBX 8 8 2 0
BITMAP
18
3C
7E
FF
3C
3C
3C
78
ENDCHAR
STARTCHAR U+E067
ENCODING 57447
SWIDTH 1152 0
DWIDTH 12 0
BBX 8 8 2 0
BITMAP
78
3C
3C
3C
FF
7E
3C
18
ENDCHAR
STARTCHAR U+E068
ENCODING 57448
SWIDTH 1152 0
DWIDTH 12 0
BBX 8 8 2 0
BITMAP
08
0C
7E
FF
FF
FE
8C
08
ENDCHAR
STARTCHAR U+E069
ENCODING 57449
SWIDTH 1152 0
DWIDTH 12 0
BBX 8 8 2 0
BITMAP
10
30
7E
FF
FF
7F
31
10
ENDCHAR
STARTCHAR U+E06A
ENCODING 57450
SWIDTH 1152 0
DWIDTH 12 0
BBX 8 8 2 0
BITMAP
08
8C
FE
FF
FF
7E
0C
08
ENDCHAR
STARTCHAR U+E06B
ENCODING 57451
SWIDTH 1152 0
DWIDTH 12 0
BBX 8 8 2 0
BITMAP
10
31
7F
FF
FF
7E
30
10
ENDCHAR
STARTCHAR U+E06C
ENCODING 57452
SWIDTH 1152 0
DWIDTH 12 0
BBX 6 7 3 0
BITMAP
30
78
FC
78
78
78
78
ENDCHAR
STARTCHAR U+E06D
ENCODING 57453
SWIDTH 1152 0
DWIDTH 12 0
BBX 6 7 3 0
BITMAP
78
78
78
78
FC
78
30
ENDCHAR
STARTCHAR U+E06E
ENCODING 57454
SWIDTH 1152 0
DWIDTH 12 0
BBX 7 6 2 0
BITMAP
08
FC
FE
FE
FC
08
ENDCHAR
STARTCHAR U+E06F
ENCODING 57455
SWIDTH 1152 0
DWIDTH 12 0
BBX 7 6 2 0
BITMAP
20
7E
FE
FE
7E
20
ENDCHAR
STARTCHAR U+E070
ENCODING 57456
SWIDTH 1152 0
DWIDTH 12 0
BBX 8 8 2 0
BITMAP
FF
7E
BD
DB
E7
FF
FF
FF
ENDCHAR
STARTCHAR U+E071
ENCODING 57457
SWIDTH 1152 0
DWIDTH 12 0
BBX 8 8 2 0
BITMAP
FF
81
C3
A5
99
81
81
FF
ENDCHAR
STARTCHAR U+E072
ENCODING 57458
SWIDTH 1152 0
DWIDTH 12 0
BBX 8 7 2 0
BITMAP
FF
7E
BD
DB
E7
FF
FF
ENDCHAR
STARTCHAR U+E073
ENCODING 57459
SWIDTH 1152 0
DWIDTH 12 0
BBX 8 7 2 0
BITMAP
FF
81
C3
A5
99
81
FF
ENDCHAR
STARTCHAR U+E074
ENCODING 57460
SWIDTH 1152 0
DWIDTH 12 0
BBX 8 8 2 0
BITMAP
C0
EC
DE
5E
EC
DE
3F
3F
ENDCHAR
STARTCHAR U+E075
ENCODING 57461
SWIDTH 1152 0
DWIDTH 12 0
BBX 6 7 3 0
BITMAP
30
78
78
30
78
FC
FC
ENDCHAR
STARTCHAR U+E076
ENCODING 57462
SWIDTH 1152 0
DWIDTH 12 0
BBX 8 8 2 0
BITMAP
FF
BD
DB
E7
E7
DB
BD
FF
ENDCHAR
STARTCHAR U+E077
ENCODING 57463
SWIDTH 1152 0
DWIDTH 12 0
BBX 6 8 3 0
BITMAP
78
CC
CC
CC
CC
FC
CC
78
ENDCHAR
STARTCHAR U+E078
ENCODING 57464
SWIDTH 1152 0
DWIDTH 12 0
BBX 6 8 3 0
BITMAP
78
CC
FC
CC
CC
CC
CC
78
ENDCHAR
STARTCHAR U+E079
ENCODING 57465
SWIDTH 1152 0
DWIDTH 12 0
BBX 8 8 2 0
BITMAP
3C
7E
FF
C3
C3
FF
7E
3C
ENDCHAR
STARTCHAR U+E07A
ENCODING 57466
SWIDTH 1152 0
DWIDTH 12 0
BBX 6 7 3 0
BITMAP
30
78
FC
78
78
78
3C
ENDCHAR
STARTCHAR U+E07B
ENCODING 57467
SWIDTH 1152 0
DWIDTH 12 0
BBX 6 7 3 0
BITMAP
3C
78
78
78
FC
78
30
ENDCHAR
STARTCHAR U+E07C
ENCODING 57468
SWIDTH 1152 0
DWIDTH 12 0
BBX 6 7 3 0
BITMAP
30
78
FC
78
78
78
F0
ENDCHAR
STARTCHAR U+E07D
ENCODING 57469
SWIDTH 1152 0
DWIDTH 12 0
BBX 6 7 3 0
BITMAP
F0
78
78
78
FC
78
30
ENDCHAR
STARTCHAR U+E07E
ENCODING 57470
SWIDTH 1152 0
DWIDTH 12 0
BBX 7 6 2 0
BITMAP
08
7C
FE
FE
FC
88
ENDCHAR
STARTCHAR U+E07F
ENCODING 57471
SWIDTH 1152 0
DWIDTH 12 0
BBX 7 6 2 0
BITMAP
20
7C
FE
FE
7E
22
ENDCHAR
STARTCHAR U+E080
ENCODING 57472
SWIDTH 1152 0
DWIDTH 12 0
BBX 7 7 2 0
BITMAP
10
28
6C
E2
7C
38
10
ENDCHAR
STARTCHAR U+E081
ENCODING 57473
SWIDTH 1152 0
DWIDTH 12 0
BBX 7 7 2 0
BITMAP
FE
EE
EE
E2
FE
FE
FE
ENDCHAR
STARTCHAR U+E082
ENCODING 57474
SWIDTH 1152 0
DWIDTH 12 0
BBX 7 7 2 0
BITMAP
D6
C6
38
BA
38
C6
D6
ENDCHAR
STARTCHAR U+E083
ENCODING 57475
SWIDTH 1152 0
DWIDTH 12 0
BBX 7 7 2 0
BITMAP
40
5E
78
6C
3C
F4
04
ENDCHAR
STARTCHAR U+E084
ENCODING 57476
SWIDTH 1152 0
DWIDTH 12 0
BBX 8 5 2 1
BITMAP
FE
83
83
83
FE
ENDCHAR
STARTCHAR U+E085
ENCODING 57477
SWIDTH 1152 0
DWIDTH 12 0
BBX 8 5 2 1
BITMAP
FE
83
B3
83
FE
ENDCHAR
STARTCHAR U+E086
ENCODING 57478
SWIDTH 1152 0
DWIDTH 12 0
BBX 8 5 2 1
BITMAP
FE
83
BB
83
FE
ENDCHAR
STARTCHAR U+E087
ENCODING 57479
SWIDTH 1152 0
DWIDTH 12 0
BBX 6 7 3 0
BITMAP
30
FC
84
84
84
84
FC
ENDCHAR
STARTCHAR U+E088
ENCODING 57480
SWIDTH 1152 0
DWIDTH 12 0
BBX 6 7 3 0
BITMAP
30
FC
84
A4
B4
84
FC
ENDCHAR
STARTCHAR U+E089
ENCODING 57481
SWIDTH 1152 0
DWIDTH 12 0
BBX 6 7 3 0
BITMAP
30
FC
84
B4
B4
84
FC
ENDCHAR
STARTCHAR U+E08A
ENCODING 57482
SWIDTH 1152 0
DWIDTH 12 0
BBX 5 7 3 0
BITMAP
70
F8
88
88
88
88
F8
ENDCHAR
STARTCHAR U+E08B
ENCODING 57483
SWIDTH 1152 0
DWIDTH 12 0
BBX 5 7 3 0
BITMAP
70
F8
88
88
A8
88
F8
ENDCHAR
STARTCHAR U+E08C
ENCODING 57484
SWIDTH 1152 0
DWIDTH 12 0
BBX 5 7 3 0
BITMAP
70
F8
88
A8
A8
88
F8
ENDCHAR
STARTCHAR U+E08D
ENCODING 57485
SWIDTH 1152 0
DWIDTH 12 0
BBX 5 8 3 0
BITMAP
70
F8
88
88
88
88
88
F8
ENDCHAR
STARTCHAR U+E08E
ENCODING 57486
SWIDTH 1152 0
DWIDTH 12 0
BBX 5 8 3 0
BITMAP
70
F8
88
88
A8
A8
88
F8
ENDCHAR
STARTCHAR U+E08F
ENCODING 57487
SWIDTH 1152 0
DWIDTH 12 0
BBX 5 8 3 0
BITMAP
70
F8
88
A8
A8
A8
88
F8
ENDCHAR
STARTCHAR U+E090
ENCODING 57488
SWIDTH 1152 0
DWIDTH 12 0
BBX 8 6 2 0
BITMAP
7F
41
C1
C1
41
7F
ENDCHAR
STARTCHAR U+E091
ENCODING 57489
SWIDTH 1152 0
DWIDTH 12 0
BBX 8 6 2 0
BITMAP
7F
41
C5
CD
41
7F
ENDCHAR
STARTCHAR U+E092
ENCODING 57490
SWIDTH 1152 0
DWIDTH 12 0
BBX 8 6 2 0
BITMAP
7F
41
CD
DD
41
7F
ENDCHAR
STARTCHAR U+E093
ENCODING 57491
SWIDTH 1152 0
DWIDTH 12 0
BBX 8 6 2 0
BITMAP
7F
41
DD
DD
41
7F
ENDCHAR
STARTCHAR U+E094
ENCODING 57492
SWIDTH 1152 0
DWIDTH 12 0
BBX 8 8 2 0
BITMAP
08
4C
8F
AF
AF
8F
4C
08
ENDCHAR
STARTCHAR U+E095
ENCODING 57493
SWIDTH 1152 0
DWIDTH 12 0
BBX 7 8 2 0
BITMAP
20
30
BE
BE
BE
BE
30
20
ENDCHAR
STARTCHAR U+E096
ENCODING 57494
SWIDTH 1152 0
DWIDTH 12 0
BBX 6 7 3 0
BITMAP
84
8C
9C
BC
9C
8C
84
ENDCHAR
STARTCHAR U+E097
ENCODING 57495
SWIDTH 1152 0
DWIDTH 12 0
BBX 8 7 2 0
BITMAP
11
33
77
FF
77
33
11
ENDCHAR
STARTCHAR U+E098
ENCODING 57496
SWIDTH 1152 0
DWIDTH 12 0
BBX 7 7 2 0
BITMAP
38
7C
FE
FE
FE
7C
38
ENDCHAR
STARTCHAR U+E099
ENCODING 57497
SWIDTH 1152 0
DWIDTH 12 0
BBX 7 7 2 0
BITMAP
FE
FE
FE
FE
FE
FE
FE
ENDCHAR
STARTCHAR U+E09A
ENCODING 57498
SWIDTH 1152 0
DWIDTH 12 0
BBX 4 7 4 0
BITMAP
80
C0
E0
F0
E0
C0
80
ENDCHAR
STARTCHAR U+E09B
ENCODING 57499
SWIDTH 1152 0
DWIDTH 12 0
BBX 5 7 3 0
BITMAP
D8
D8
D8
D8
D8
D8
D8
ENDCHAR
STARTCHAR U+E09C
ENCODING 57500
SWIDTH 1152 0
DWIDTH 12 0
BBX 6 7 3 0
BITMAP
84
C4
E4
F4
E4
C4
84
ENDCHAR
STARTCHAR U+E09D
ENCODING 57501
SWIDTH 1152 0
DWIDTH 12 0
BBX 8 7 2 0
BITMAP
88
CC
EE
FF
EE
CC
88
ENDCHAR
STARTCHAR U+E09E
ENCODING 57502
SWIDTH 1152 0
DWIDTH 12 0
BBX 6 9 3 -1
BITMAP
08
10
30
60
FC
18
30
20
40
ENDCHAR
STARTCHAR U+E09F
ENCODING 57503
SWIDTH 1152 0
DWIDTH 12 0
BBX 8 8 2 0
BITMAP
FF
81
81
81
81
FF
18
7E
ENDCHAR
STARTCHAR U+E0A0
ENCODING 57504
SWIDTH 1152 0
DWIDTH 12 0
BBX 6 6 3 0
BITMAP
78
DC
F8
F0
FC
78
ENDCHAR
STARTCHAR U+E0A1
ENCODING 57505
SWIDTH 1152 0
DWIDTH 12 0
BBX 8 8 2 0
BITMAP
18
18
3C
3C
7E
66
E7
C3
ENDCHAR
STARTCHAR U+E0A2
ENCODING 57506
SWIDTH 1152 0
DWIDTH 12 0
BBX 6 6 3 0
BITMAP
78
DC
DC
C4
FC
78
ENDCHAR
STARTCHAR U+E0A3
ENCODING 57507
SWIDTH 1152 0
DWIDTH 12 0
BBX 7 7 2 0
BITMAP
38
6C
EE
E2
FE
7C
38
ENDCHAR
STARTCHAR U+E0A4
ENCODING 57508
SWIDTH 1152 0
DWIDTH 12 0
BBX 5 7 3 0
BITMAP
60
78
60
78
60
F0
60
ENDCHAR
STARTCHAR U+E0A5
ENCODING 57509
SWIDTH 1152 0
DWIDTH 12 0
BBX 6 7 3 0
BITMAP
24
70
74
50
88
88
70
ENDCHAR
STARTCHAR U+E0A6
ENCODING 57510
SWIDTH 1152 0
DWIDTH 12 0
BBX 6 7 3 0
BITMAP
78
84
84
84
FC
FC
FC
ENDCHAR
STARTCHAR U+E0A7
ENCODING 57511
SWIDTH 1152 0
DWIDTH 12 0
BBX 6 8 3 0
BITMAP
FC
CC
CC
CC
CC
FC
CC
FC
ENDCHAR
STARTCHAR U+E0A8
ENCODING 57512
SWIDTH 1152 0
DWIDTH 12 0
BBX 6 8 3 0
BITMAP
FC
CC
FC
CC
CC
CC
CC
FC
ENDCHAR
STARTCHAR U+E0A9
ENCODING 57513
SWIDTH 1152 0
DWIDTH 12 0
BBX 8 6 2 0
BITMAP
3C
42
99
99
42
3C
ENDCHAR
STARTCHAR U+E0AA
ENCODING 57514
SWIDTH 1152 0
DWIDTH 12 0
BBX 7 8 2 0
BITMAP
38
7C
D6
D6
FE
FE
FE
AA
ENDCHAR
STARTCHAR U+E0AB
ENCODING 57515
SWIDTH 1152 0
DWIDTH 12 0
BBX 8 8 2 0
BITMAP
3C
7E
E7
DB
DB
E7
7E
3C
ENDCHAR
STARTCHAR U+E0AC
ENCODING 57516
SWIDTH 1152 0
DWIDTH 12 0
BBX 6 6 3 0
BITMAP
F0
88
E4
94
D4
FC
ENDCHAR
STARTCHAR U+E0AD
ENCODING 57517
SWIDTH 1152 0
DWIDTH 12 0
BBX 8 8 2 0
BITMAP
7E
81
81
81
81
7A
0C
08
ENDCHAR
STARTCHAR U+E0AE
ENCODING 57518
SWIDTH 1152 0
DWIDTH 12 0
BBX 8 8 2 0
BITMAP
18
24
66
E7
E7
7E
24
18
ENDCHAR
STARTCHAR U+E0AF
ENCODING 57519
SWIDTH 1152 0
DWIDTH 12 0
BBX 6 7 3 0
BITMAP
FC
84
84
84
FC
30
FC
ENDCHAR
STARTCHAR U+E0B0
ENCODING 57520
SWIDTH 1152 0
DWIDTH 12 0
BBX 6 7 3 0
BITMAP
10
98
54
38
54
98
10
ENDCHAR
STARTCHAR U+E0B1
ENCODING 57521
SWIDTH 1152 0
DWIDTH 12 0
BBX 8 8 2 0
BITMAP
F8
F8
F8
FB
FB
03
1F
1F
ENDCHAR
STARTCHAR U+E0B2
ENCODING 57522
SWIDTH 1152 0
DWIDTH 12 0
BBX 8 8 2 0
BITMAP
18
3C
7E
FF
42
5A
5A
7E
ENDCHAR
STARTCHAR U+E0B3
ENCODING 57523
SWIDTH 1152 0
DWIDTH 12 0
BBX 3 8 4 0
BITMAP
E0
E0
E0
E0
E0
00
E0
E0
ENDCHAR
STARTCHAR U+E0B4
ENCODING 57524
SWIDTH 1152 0
DWIDTH 12 0
BBX 8 7 2 0
BITMAP
FF
81
81
81
81
81
FF
ENDCHAR
STARTCHAR U+E0B5
ENCODING 57525
SWIDTH 1152 0
DWIDTH 12 0
BBX 8 7 2 0
BITMAP
FF
89
8F
89
8F
89
FF
ENDCHAR
STARTCHAR U+E0B6
ENCODING 57526
SWIDTH 1152 0
DWIDTH 12 0
BBX 8 7 2 0
BITMAP
FF
81
81
FF
A5
A5
FF
ENDCHAR
STARTCHAR U+E0B7
ENCODING 57527
SWIDTH 1152 0
DWIDTH 12 0
BBX 8 7 2 0
BITMAP
FF
81
81
81
FF
81
FF
ENDCHAR
STARTCHAR U+E0B8
ENCODING 57528
SWIDTH 1152 0
DWIDTH 12 0
BBX 8 7 2 0
BITMAP
FF
A5
FF
A5
FF
A5
FF
ENDCHAR
STARTCHAR U+E0B9
ENCODING 57529
SWIDTH 1152 0
DWIDTH 12 0
BBX 8 7 2 0
BITMAP
F8
88
88
FB
01
11
1F
ENDCHAR
STARTCHAR U+E0BA
ENCODING 57530
SWIDTH 1152 0
DWIDTH 12 0
BBX 8 7 2 0
BITMAP
FF
91
9F
95
97
95
FF
ENDCHAR
STARTCHAR U+E0BB
ENCODING 57531
SWIDTH 1152 0
DWIDTH 12 0
BBX 8 7 2 0
BITMAP
FF
91
9F
95
9D
95
FF
ENDCHAR
STARTCHAR U+E0BC
ENCODING 57532
SWIDTH 1152 0
DWIDTH 12 0
BBX 8 7 2 0
BITMAP
FF
89
8F
F9
8F
89
FF
ENDCHAR
STARTCHAR U+E0BD
ENCODING 57533
SWIDTH 1152 0
DWIDTH 12 0
BBX 8 7 2 0
BITMAP
FF
89
89
FF
A5
A5
FF
ENDCHAR
STARTCHAR U+E0BE
ENCODING 57534
SWIDTH 1152 0
DWIDTH 12 0
BBX 8 7 2 0
BITMAP
FF
89
89
F9
81
81
FF
ENDCHAR
STARTCHAR U+E0BF
ENCODING 57535
SWIDTH 1152 0
DWIDTH 12 0
BBX 8 8 2 0
BITMAP
18
24
42
FF
42
5A
5A
7E
ENDCHAR
STARTCHAR U+E0C0
ENCODING 57536
SWIDTH 1152 0
DWIDTH 12 0
BBX 7 7 2 0
BITMAP
C6
BA
44
44
44
BA
C6
ENDCHAR
STARTCHAR U+E0C1
ENCODING 57537
SWIDTH 1152 0
DWIDTH 12 0
BBX 8 8 2 0
BITMAP
C3
BD
42
42
42
42
BD
C3
ENDCHAR
STARTCHAR U+E0C2
ENCODING 57538
SWIDTH 1152 0
DWIDTH 12 0
BBX 7 7 2 0
BITMAP
82
7C
44
44
44
7C
82
ENDCHAR
STARTCHAR U+E0C3
ENCODING 57539
SWIDTH 1152 0
DWIDTH 12 0
BBX 8 8 2 0
BITMAP
81
7E
42
42
42
42
7E
81
ENDCHAR
STARTCHAR U+E0C4
ENCODING 57540
SWIDTH 1152 0
DWIDTH 12 0
BBX 7 7 2 0
BITMAP
AA
00
FE
82
FE
00
AA
ENDCHAR
STARTCHAR U+E0C5
ENCODING 57541
SWIDTH 1152 0
DWIDTH 12 0
BBX 7 8 2 0
BITMAP
AA
00
FE
82
82
FE
00
AA
ENDCHAR
STARTCHAR U+E0C6
ENCODING 57542
SWIDTH 1152 0
DWIDTH 12 0
BBX 7 7 2 0
BITMAP
38
7C
D6
D6
FE
FE
AA
ENDCHAR
STARTCHAR U+E0C7
ENCODING 57543
SWIDTH 1152 0
DWIDTH 12 0
BBX 7 7 2 0
BITMAP
38
7C
D6
FE
FE
FE
AA
ENDCHAR
STARTCHAR U+E0C8
ENCODING 57544
SWIDTH 1152 0
DWIDTH 12 0
BBX 7 8 2 0
BITMAP
38
7C
D6
FE
FE
FE
FE
AA
ENDCHAR
STARTCHAR U+E0C9
ENCODING 57545
SWIDTH 1152 0
DWIDTH 12 0
BBX 7 7 2 0
BITMAP
26
8E
1C
68
90
90
60
ENDCHAR
STARTCHAR U+E0CA
ENCODING 57546
SWIDTH 1152 0
DWIDTH 12 0
BBX 8 8 2 0
BITMAP
13
05
4A
14
68
90
90
60
ENDCHAR
STARTCHAR U+E0CB
ENCODING 57547
SWIDTH 1152 0
DWIDTH 12 0
BBX 7 7 2 0
BITMAP
26
8A
14
68
90
90
60
ENDCHAR
STARTCHAR U+E0CC
ENCODING 57548
SWIDTH 1152 0
DWIDTH 12 0
BBX 6 8 3 0
BITMAP
24
70
54
50
54
88
88
70
ENDCHAR
STARTCHAR U+E0CD
ENCODING 57549
SWIDTH 1152 0
DWIDTH 12 0
BBX 6 7 3 0
BITMAP
24
70
54
50
88
88
70
ENDCHAR
STARTCHAR U+E0CE
ENCODING 57550
SWIDTH 1152 0
DWIDTH 12 0
BBX 6 7 3 0
BITMAP
70
5C
50
5C
50
88
70
ENDCHAR
STARTCHAR U+E0CF
ENCODING 57551
SWIDTH 1152 0
DWIDTH 12 0
BBX 6 8 3 0
BITMAP
70
5C
50
5C
50
88
88
70
ENDCHAR
STARTCHAR U+E0D0
ENCODING 57552
SWIDTH 1152 0
DWIDTH 12 0
BBX 8 8 2 0
BITMAP
18
24
42
E7
24
24
24
3C
ENDCHAR
STARTCHAR U+E0D1
ENCODING 57553
SWIDTH 1152 0
DWIDTH 12 0
BBX 8 8 2 0
BITMAP
3C
24
24
24
E7
42
24
18
ENDCHAR
STARTCHAR U+E0D2
ENCODING 57554
SWIDTH 1152 0
DWIDTH 12 0
BBX 8 8 2 0
BITMAP
08
0C
FA
81
81
FA
0C
08
ENDCHAR
STARTCHAR U+E0D3
ENCODING 57555
SWIDTH 1152 0
DWIDTH 12 0
BBX 8 8 2 0
BITMAP
10
30
5F
81
81
5F
30
10
ENDCHAR
STARTCHAR U+E0D4
ENCODING 57556
SWIDTH 1152 0
DWIDTH 12 0
BBX 7 7 2 0
BITMAP
10
28
44
EE
28
28
38
ENDCHAR
STARTCHAR U+E0D5
ENCODING 57557
SWIDTH 1152 0
DWIDTH 12 0
BBX 7 7 2 0
BITMAP
38
28
28
EE
44
28
10
ENDCHAR
STARTCHAR U+E0D6
ENCODING 57558
SWIDTH 1152 0
DWIDTH 12 0
BBX 7 7 2 0
BITMAP
10
18
F4
82
F4
18
10
ENDCHAR
STARTCHAR U+E0D7
ENCODING 57559
SWIDTH 1152 0
DWIDTH 12 0
BBX 7 7 2 0
BITMAP
10
30
5E
82
5E
30
10
ENDCHAR
STARTCHAR U+E0D8
ENCODING 57560
SWIDTH 1152 0
DWIDTH 12 0
BBX 8 7 2 0
BITMAP
18
28
CF
88
CF
28
18
ENDCHAR
STARTCHAR U+E0D9
ENCODING 57561
SWIDTH 1152 0
DWIDTH 12 0
BBX 8 8 2 0
BITMAP
18
28
4F
88
88
4F
28
18
ENDCHAR
STARTCHAR U+E0DA
ENCODING 57562
SWIDTH 1152 0
DWIDTH 12 0
BBX 6 8 3 0
BITMAP
48
48
48
FC
84
48
30
30
ENDCHAR
STARTCHAR U+E0DB
ENCODING 57563
SWIDTH 1152 0
DWIDTH 12 0
BBX 6 7 3 0
BITMAP
48
48
FC
84
48
30
30
ENDCHAR
STARTCHAR U+E0DC
ENCODING 57564
SWIDTH 1152 0
DWIDTH 12 0
BBX 8 7 2 0
BITMAP
3C
42
94
88
8F
42
3C
ENDCHAR
STARTCHAR U+E0DD
ENCODING 57565
SWIDTH 1152 0
DWIDTH 12 0
BBX 8 8 2 0
BITMAP
18
24
24
42
42
99
A5
C3
ENDCHAR
STARTCHAR U+E0DE
ENCODING 57566
SWIDTH 1152 0
DWIDTH 12 0
BBX 8 8 2 0
BITMAP
3C
42
92
84
88
87
42
3C
ENDCHAR
STARTCHAR U+E0DF
ENCODING 57567
SWIDTH 1152 0
DWIDTH 12 0
BBX 7 7 2 0
BITMAP
10
28
28
44
54
AA
C6
ENDCHAR
STARTCHAR U+E0E0
ENCODING 57568
SWIDTH 1152 0
DWIDTH 12 0
BBX 8 8 2 0
BITMAP
10
32
D1
95
95
D1
32
10
ENDCHAR
STARTCHAR U+E0E1
ENCODING 57569
SWIDTH 1152 0
DWIDTH 12 0
BBX 8 7 2 0
BITMAP
10
32
D1
95
D1
32
10
ENDCHAR
STARTCHAR U+E0E2
ENCODING 57570
SWIDTH 1152 0
DWIDTH 12 0
BBX 7 8 2 0
BITMAP
08
18
EA
8A
8A
EA
18
08
ENDCHAR
STARTCHAR U+E0E3
ENCODING 57571
SWIDTH 1152 0
DWIDTH 12 0
BBX 7 7 2 0
BITMAP
08
18
EA
8A
EA
18
08
ENDCHAR
STARTCHAR U+E0E4
ENCODING 57572
SWIDTH 1152 0
DWIDTH 12 0
BBX 6 8 3 0
BITMAP
84
8C
94
A4
A4
94
8C
84
ENDCHAR
STARTCHAR U+E0E5
ENCODING 57573
SWIDTH 1152 0
DWIDTH 12 0
BBX 8 8 2 0
BITMAP
11
33
55
99
99
55
33
11
ENDCHAR
STARTCHAR U+E0E6
ENCODING 57574
SWIDTH 1152 0
DWIDTH 12 0
BBX 8 8 2 0
BITMAP
3C
42
81
81
81
81
42
3C
ENDCHAR
STARTCHAR U+E0E7
ENCODING 57575
SWIDTH 1152 0
DWIDTH 12 0
BBX 8 8 2 0
BITMAP
FF
81
81
81
81
81
81
FF
ENDCHAR
STARTCHAR U+E0E8
ENCODING 57576
SWIDTH 1152 0
DWIDTH 12 0
BBX 4 8 4 0
BITMAP
80
C0
A0
90
90
A0
C0
80
ENDCHAR
STARTCHAR U+E0E9
ENCODING 57577
SWIDTH 1152 0
DWIDTH 12 0
BBX 4 8 4 0
BITMAP
90
90
90
90
90
90
90
90
ENDCHAR
STARTCHAR U+E0EA
ENCODING 57578
SWIDTH 1152 0
DWIDTH 12 0
BBX 6 8 3 0
BITMAP
84
C4
A4
94
94
A4
C4
84
ENDCHAR
STARTCHAR U+E0EB
ENCODING 57579
SWIDTH 1152 0
DWIDTH 12 0
BBX 8 8 2 0
BITMAP
88
CC
AA
99
99
AA
CC
88
ENDCHAR
STARTCHAR U+E0EC
ENCODING 57580
SWIDTH 1152 0
DWIDTH 12 0
BBX 7 7 2 0
BITMAP
3E
22
22
22
66
AA
CC
ENDCHAR
STARTCHAR U+E0ED
ENCODING 57581
SWIDTH 1152 0
DWIDTH 12 0
BBX 7 8 2 0
BITMAP
3E
22
22
22
22
66
AA
CC
ENDCHAR
STARTCHAR U+E0EE
ENCODING 57582
SWIDTH 1152 0
DWIDTH 12 0
BBX 3 4 6 0
BITMAP
20
20
A0
A0
ENDCHAR
STARTCHAR U+E0EF
ENCODING 57583
SWIDTH 1152 0
DWIDTH 12 0
BBX 5 6 4 0
BITMAP
08
08
28
28
A8
A8
ENDCHAR
STARTCHAR U+E0F0
ENCODING 57584
SWIDTH 1152 0
DWIDTH 12 0
BBX 7 8 2 0
BITMAP
02
02
0A
0A
2A
2A
AA
AA
ENDCHAR
STARTCHAR U+E0F1
ENCODING 57585
SWIDTH 1152 0
DWIDTH 12 0
BBX 3 3 6 0
BITMAP
20
20
A0
ENDCHAR
STARTCHAR U+E0F2
ENCODING 57586
SWIDTH 1152 0
DWIDTH 12 0
BBX 5 5 4 0
BITMAP
08
08
28
28
A8
ENDCHAR
STARTCHAR U+E0F3
ENCODING 57587
SWIDTH 1152 0
DWIDTH 12 0
BBX 7 7 2 0
BITMAP
02
02
0A
0A
2A
2A
AA
ENDCHAR
STARTCHAR U+E0F4
ENCODING 57588
SWIDTH 1152 0
DWIDTH 12 0
BBX 6 7 3 0
BITMAP
84
8C
94
A4
94
8C
84
ENDCHAR
STARTCHAR U+E0F5
ENCODING 57589
SWIDTH 1152 0
DWIDTH 12 0
BBX 8 7 2 0
BITMAP
11
33
55
99
55
33
11
ENDCHAR
STARTCHAR U+E0F6
ENCODING 57590
SWIDTH 1152 0
DWIDTH 12 0
BBX 7 7 2 0
BITMAP
38
44
82
82
82
44
38
ENDCHAR
STARTCHAR U+E0F7
ENCODING 57591
SWIDTH 1152 0
DWIDTH 12 0
BBX 7 7 2 0
BITMAP
FE
82
82
82
82
82
FE
ENDCHAR
STARTCHAR U+E0F8
ENCODING 57592
SWIDTH 1152 0
DWIDTH 12 0
BBX 4 7 4 0
BITMAP
80
C0
A0
90
A0
C0
80
ENDCHAR
STARTCHAR U+E0F9
ENCODING 57593
SWIDTH 1152 0
DWIDTH 12 0
BBX 4 7 4 0
BITMAP
90
90
90
90
90
90
90
ENDCHAR
STARTCHAR U+E0FA
ENCODING 57594
SWIDTH 1152 0
DWIDTH 12 0
BBX 6 7 3 0
BITMAP
84
C4
A4
94
A4
C4
84
ENDCHAR
STARTCHAR U+E0FB
ENCODING 57595
SWIDTH 1152 0
DWIDTH 12 0
BBX 8 7 2 0
BITMAP
88
CC
AA
99
AA
CC
88
ENDCHAR
STARTCHAR U+E0FC
ENCODING 57596
SWIDTH 1152 0
DWIDTH 12 0
BBX 8 7 2 0
BITMAP
3C
42
81
81
E7
A5
66
ENDCHAR
STARTCHAR U+E0FD
ENCODING 57597
SWIDTH 1152 0
DWIDTH 12 0
BBX 8 7 2 0
BITMAP
3C
42
81
81
E7
E7
66
ENDCHAR
STARTCHAR U+E0FE
ENCODING 57598
SWIDTH 1152 0
DWIDTH 12 0
BBX 7 7 2 0
BITMAP
3E
3E
22
22
66
EE
CC
ENDCHAR
STARTCHAR U+E0FF
ENCODING 57599
SWIDTH 1152 0
DWIDTH 12 0
BBX 3 8 4 0
BITMAP
E0
E0
00
E0
E0
E0
E0
E0
ENDCHAR
STARTCHAR U+E100
ENCODING 57600
SWIDTH 1152 0
DWIDTH 12 0
BBX 7 7 2 0
BITMAP
F2
7E
46
D6
C4
FC
9E
ENDCHAR
STARTCHAR U+E101
ENCODING 57601
SWIDTH 1152 0
DWIDTH 12 0
BBX 6 6 3 0
BITMAP
E4
7C
4C
C8
F8
9C
ENDCHAR
STARTCHAR U+E102
ENCODING 57602
SWIDTH 1152 0
DWIDTH 12 0
BBX 8 6 2 0
BITMAP
FF
C3
A5
99
81
FF
ENDCHAR
STARTCHAR U+E103
ENCODING 57603
SWIDTH 1152 0
DWIDTH 12 0
BBX 8 6 2 0
BITMAP
FF
7E
BD
C3
FF
FF
ENDCHAR
STARTCHAR U+E104
ENCODING 57604
SWIDTH 1152 0
DWIDTH 12 0
BBX 8 8 2 0
BITMAP
18
3C
7E
FF
FF
7E
3C
18
ENDCHAR
STARTCHAR U+E105
ENCODING 57605
SWIDTH 1152 0
DWIDTH 12 0
BBX 7 7 2 0
BITMAP
10
38
7C
FE
7C
38
10
ENDCHAR
STARTCHAR U+E106
ENCODING 57606
SWIDTH 1152 0
DWIDTH 12 0
BBX 8 8 2 0
BITMAP
66
FF
FF
FF
FF
7E
3C
18
ENDCHAR
STARTCHAR U+E107
ENCODING 57607
SWIDTH 1152 0
DWIDTH 12 0
BBX 8 7 2 0
BITMAP
66
FF
FF
FF
7E
3C
18
ENDCHAR
STARTCHAR U+E108
ENCODING 57608
SWIDTH 1152 0
DWIDTH 12 0
BBX 7 8 2 0
BITMAP
10
28
44
EE
28
28
28
38
ENDCHAR
STARTCHAR U+E109
ENCODING 57609
SWIDTH 1152 0
DWIDTH 12 0
BBX 7 8 2 0
BITMAP
38
28
28
28
EE
44
28
10
ENDCHAR
STARTCHAR U+E10A
ENCODING 57610
SWIDTH 1152 0
DWIDTH 12 0
BBX 8 7 2 0
BITMAP
08
0C
FA
81
FA
0C
08
ENDCHAR
STARTCHAR U+E10B
ENCODING 57611
SWIDTH 1152 0
DWIDTH 12 0
BBX 8 7 2 0
BITMAP
10
30
5F
81
5F
30
10
ENDCHAR
STARTCHAR U+E10C
ENCODING 57612
SWIDTH 1152 0
DWIDTH 12 0
BBX 7 8 2 0
BITMAP
10
10
54
92
92
82
44
38
ENDCHAR
STARTCHAR U+E10D
ENCODING 57613
SWIDTH 1152 0
DWIDTH 12 0
BBX 7 7 2 0
BITMAP
10
54
92
92
82
44
38
ENDCHAR
STARTCHAR U+E10E
ENCODING 57614
SWIDTH 1152 0
DWIDTH 12 0
BBX 7 7 2 0
BITMAP
10
28
44
FE
44
54
7C
ENDCHAR
STARTCHAR U+E10F
ENCODING 57615
SWIDTH 1152 0
DWIDTH 12 0
BBX 6 7 3 0
BITMAP
48
5C
48
48
48
E8
48
ENDCHAR
STARTCHAR U+E110
ENCODING 57616
SWIDTH 1152 0
DWIDTH 12 0
BBX 5 7 3 0
BITMAP
20
F8
88
88
88
88
F8
ENDCHAR
STARTCHAR U+E111
ENCODING 57617
SWIDTH 1152 0
DWIDTH 12 0
BBX 5 7 3 0
BITMAP
20
F8
88
88
A8
88
F8
ENDCHAR
STARTCHAR U+E112
ENCODING 57618
SWIDTH 1152 0
DWIDTH 12 0
BBX 5 7 3 0
BITMAP
20
F8
88
A8
A8
88
F8
ENDCHAR
STARTCHAR U+E113
ENCODING 57619
SWIDTH 1152 0
DWIDTH 12 0
BBX 8 5 2 1
BITMAP
FE
82
83
82
FE
ENDCHAR
STARTCHAR U+E114
ENCODING 57620
SWIDTH 1152 0
DWIDTH 12 0
BBX 8 5 2 1
BITMAP
FE
82
A3
82
FE
ENDCHAR
STARTCHAR U+E115
ENCODING 57621
SWIDTH 1152 0
DWIDTH 12 0
BBX 8 5 2 1
BITMAP
FE
82
B3
82
FE
ENDCHAR
STARTCHAR U+E116
ENCODING 57622
SWIDTH 1152 0
DWIDTH 12 0
BBX 8 5 2 1
BITMAP
FE
82
BB
82
FE
ENDCHAR
STARTCHAR U+E117
ENCODING 57623
SWIDTH 1152 0
DWIDTH 12 0
BBX 8 5 2 1
BITMAP
7F
41
C1
41
7F
ENDCHAR
STARTCHAR U+E118
ENCODING 57624
SWIDTH 1152 0
DWIDTH 12 0
BBX 8 5 2 1
BITMAP
7F
41
C5
41
7F
ENDCHAR
STARTCHAR U+E119
ENCODING 57625
SWIDTH 1152 0
DWIDTH 12 0
BBX 8 5 2 1
BITMAP
7F
41
CD
41
7F
ENDCHAR
STARTCHAR U+E11A
ENCODING 57626
SWIDTH 1152 0
DWIDTH 12 0
BBX 8 5 2 1
BITMAP
7F
41
DD
41
7F
ENDCHAR
STARTCHAR U+E11B
ENCODING 57627
SWIDTH 1152 0
DWIDTH 12 0
BBX 8 8 2 0
BITMAP
08
4C
8B
A9
A9
8B
4C
08
ENDCHAR
STARTCHAR U+E11C
ENCODING 57628
SWIDTH 1152 0
DWIDTH 12 0
BBX 8 7 2 0
BITMAP
08
4C
8B
A9
8B
4C
08
ENDCHAR
STARTCHAR U+E11D
ENCODING 57629
SWIDTH 1152 0
DWIDTH 12 0
BBX 7 8 2 0
BITMAP
20
30
AE
A2
A2
AE
30
20
ENDCHAR
STARTCHAR U+E11E
ENCODING 57630
SWIDTH 1152 0
DWIDTH 12 0
BBX 7 7 2 0
BITMAP
20
30
AE
A2
AE
30
20
ENDCHAR
STARTCHAR U+E11F
ENCODING 57631
SWIDTH 1152 0
DWIDTH 12 0
BBX 7 6 2 0
BITMAP
04
FE
04
40
FE
40
ENDCHAR
STARTCHAR U+E120
ENCODING 57632
SWIDTH 1152 0
DWIDTH 12 0
BBX 7 7 2 0
BITMAP
FE
82
C6
BA
82
82
FE
ENDCHAR
STARTCHAR U+E121
ENCODING 57633
SWIDTH 1152 0
DWIDTH 12 0
BBX 7 7 2 0
BITMAP
FE
7C
BA
C6
FE
FE
FE
ENDCHAR
STARTCHAR U+E122
ENCODING 57634
SWIDTH 1152 0
DWIDTH 12 0
BBX 7 6 2 0
BITMAP
FE
82
C6
BA
82
FE
ENDCHAR
STARTCHAR U+E123
ENCODING 57635
SWIDTH 1152 0
DWIDTH 12 0
BBX 7 6 2 0
BITMAP
FE
7C
BA
C6
FE
FE
ENDCHAR
STARTCHAR U+E124
ENCODING 57636
SWIDTH 1152 0
DWIDTH 12 0
BBX 7 7 2 0
BITMAP
FE
C6
AA
92
82
82
FE
ENDCHAR
STARTCHAR U+E125
ENCODING 57637
SWIDTH 1152 0
DWIDTH 12 0
BBX 7 6 2 0
BITMAP
FE
C6
AA
92
82
FE
ENDCHAR
STARTCHAR U+E126
ENCODING 57638
SWIDTH 1152 0
DWIDTH 12 0
BBX 7 5 2 1
BITMAP
FE
C6
BA
82
FE
ENDCHAR
STARTCHAR U+E127
ENCODING 57639
SWIDTH 1152 0
DWIDTH 12 0
BBX 7 5 2 1
BITMAP
FE
7C
BA
C6
FE
ENDCHAR
STARTCHAR U+E128
ENCODING 57640
SWIDTH 1152 0
DWIDTH 12 0
BBX 7 7 2 0
BITMAP
38
44
92
9A
82
44
38
ENDCHAR
STARTCHAR U+E129
ENCODING 57641
SWIDTH 1152 0
DWIDTH 12 0
BBX 7 7 2 0
BITMAP
10
28
54
9A
44
28
10
ENDCHAR
STARTCHAR U+E12A
ENCODING 57642
SWIDTH 1152 0
DWIDTH 12 0
BBX 7 7 2 0
BITMAP
FE
82
92
9A
82
82
FE
ENDCHAR
STARTCHAR U+E12B
ENCODING 57643
SWIDTH 1152 0
DWIDTH 12 0
BBX 5 8 3 0
BITMAP
20
70
F8
20
20
20
20
20
ENDCHAR
STARTCHAR U+E12C
ENCODING 57644
SWIDTH 1152 0
DWIDTH 12 0
BBX 5 8 3 0
BITMAP
20
20
20
20
20
F8
70
20
ENDCHAR
STARTCHAR U+E12D
ENCODING 57645
SWIDTH 1152 0
DWIDTH 12 0
BBX 8 5 2 1
BITMAP
04
06
FF
06
04
ENDCHAR
STARTCHAR U+E12E
ENCODING 57646
SWIDTH 1152 0
DWIDTH 12 0
BBX 8 5 2 1
BITMAP
20
60
FF
60
20
ENDCHAR
STARTCHAR U+E12F
ENCODING 57647
SWIDTH 1152 0
DWIDTH 12 0
BBX 6 8 3 0
BITMAP
48
5C
48
48
48
48
E8
48
ENDCHAR
STARTCHAR U+E130
ENCODING 57648
SWIDTH 1152 0
DWIDTH 12 0
BBX 8 8 2 0
BITMAP
FF
81
81
81
81
81
81
FF
ENDCHAR
STARTCHAR U+E131
ENCODING 57649
SWIDTH 1152 0
DWIDTH 12 0
BBX 8 8 2 0
BITMAP
FF
89
8F
89
89
8F
89
FF
ENDCHAR
STARTCHAR U+E132
ENCODING 57650
SWIDTH 1152 0
DWIDTH 12 0
BBX 8 8 2 0
BITMAP
FF
81
81
81
FF
A5
A5
FF
ENDCHAR
STARTCHAR U+E133
ENCODING 57651
SWIDTH 1152 0
DWIDTH 12 0
BBX 8 8 2 0
BITMAP
FF
81
81
FF
81
FF
81
FF
ENDCHAR
STARTCHAR U+E134
ENCODING 57652
SWIDTH 1152 0
DWIDTH 12 0
BBX 8 8 2 0
BITMAP
FF
A5
FF
A5
A5
FF
A5
FF
ENDCHAR
STARTCHAR U+E135
ENCODING 57653
SWIDTH 1152 0
DWIDTH 12 0
BBX 8 8 2 0
BITMAP
F8
88
88
8B
F9
01
11
1F
ENDCHAR
STARTCHAR U+E136
ENCODING 57654
SWIDTH 1152 0
DWIDTH 12 0
BBX 8 8 2 0
BITMAP
FF
91
91
9F
95
97
95
FF
ENDCHAR
STARTCHAR U+E137
ENCODING 57655
SWIDTH 1152 0
DWIDTH 12 0
BBX 8 8 2 0
BITMAP
FF
91
91
9F
95
9D
95
FF
ENDCHAR
STARTCHAR U+E138
ENCODING 57656
SWIDTH 1152 0
DWIDTH 12 0
BBX 8 8 2 0
BITMAP
FF
91
9F
91
F1
9F
91
FF
ENDCHAR
STARTCHAR U+E139
ENCODING 57657
SWIDTH 1152 0
DWIDTH 12 0
BBX 8 8 2 0
BITMAP
FF
89
89
89
FF
A5
A5
FF
ENDCHAR
STARTCHAR U+E13A
ENCODING 57658
SWIDTH 1152 0
DWIDTH 12 0
BBX 8 8 2 0
BITMAP
FF
89
89
89
F9
81
81
FF
ENDCHAR
STARTCHAR U+E13B
ENCODING 57659
SWIDTH 1152 0
DWIDTH 12 0
BBX 5 7 3 0
BITMAP
20
70
F8
20
20
20
20
ENDCHAR
STARTCHAR U+E13C
ENCODING 57660
SWIDTH 1152 0
DWIDTH 12 0
BBX 5 7 3 0
BITMAP
20
20
20
20
F8
70
20
ENDCHAR
STARTCHAR U+E13D
ENCODING 57661
SWIDTH 1152 0
DWIDTH 12 0
BBX 7 5 2 1
BITMAP
08
0C
FE
0C
08
ENDCHAR
STARTCHAR U+E13E
ENCODING 57662
SWIDTH 1152 0
DWIDTH 12 0
BBX 7 5 2 1
BITMAP
20
60
FE
60
20
ENDCHAR
STARTCHAR U+E13F
ENCODING 57663
SWIDTH 1152 0
DWIDTH 12 0
BBX 8 6 2 0
BITMAP
02
FF
02
40
FF
40
ENDCHAR
STARTCHAR U+E140
ENCODING 57664
SWIDTH 1152 0
DWIDTH 12 0
BBX 7 8 2 0
BITMAP
38
44
AA
AA
82
82
D6
AA
ENDCHAR
STARTCHAR U+E141
ENCODING 57665
SWIDTH 1152 0
DWIDTH 12 0
BBX 7 7 2 0
BITMAP
38
44
AA
AA
82
D6
AA
ENDCHAR
STARTCHAR U+E142
ENCODING 57666
SWIDTH 1152 0
DWIDTH 12 0
BBX 7 8 2 0
BITMAP
38
44
AA
82
82
82
D6
AA
ENDCHAR
STARTCHAR U+E143
ENCODING 57667
SWIDTH 1152 0
DWIDTH 12 0
BBX 7 7 2 0
BITMAP
38
44
AA
82
82
D6
AA
ENDCHAR
STARTCHAR U+E144
ENCODING 57668
SWIDTH 1152 0
DWIDTH 12 0
BBX 7 7 2 0
BITMAP
FE
82
82
BA
AA
AA
7E
ENDCHAR
STARTCHAR U+E145
ENCODING 57669
SWIDTH 1152 0
DWIDTH 12 0
BBX 7 7 2 0
BITMAP
FE
82
82
BA
BA
BA
7E
ENDCHAR
STARTCHAR U+E146
ENCODING 57670
SWIDTH 1152 0
DWIDTH 12 0
BBX 8 8 2 0
BITMAP
FF
81
81
81
BD
A5
A5
7F
ENDCHAR
STARTCHAR U+E147
ENCODING 57671
SWIDTH 1152 0
DWIDTH 12 0
BBX 8 8 2 0
BITMAP
FF
81
81
81
BD
AD
AD
7F
ENDCHAR
STARTCHAR U+E148
ENCODING 57672
SWIDTH 1152 0
DWIDTH 12 0
BBX 7 7 2 0
BITMAP
38
38
FE
FE
AA
FE
FE
ENDCHAR
STARTCHAR U+E149
ENCODING 57673
SWIDTH 1152 0
DWIDTH 12 0
BBX 7 8 2 0
BITMAP
38
38
FE
FE
FE
AA
FE
FE
ENDCHAR
STARTCHAR U+E14A
ENCODING 57674
SWIDTH 1152 0
DWIDTH 12 0
BBX 8 7 2 0
BITMAP
FF
81
81
81
FF
18
7E
ENDCHAR
STARTCHAR U+E14B
ENCODING 57675
SWIDTH 1152 0
DWIDTH 12 0
BBX 6 8 3 0
BITMAP
FC
FC
00
78
78
00
30
30
ENDCHAR
STARTCHAR U+E14C
ENCODING 57676
SWIDTH 1152 0
DWIDTH 12 0
BBX 8 6 2 0
BITMAP
03
1B
DB
DB
1B
03
ENDCHAR
STARTCHAR U+E14D
ENCODING 57677
SWIDTH 1152 0
DWIDTH 12 0
BBX 7 7 2 0
BITMAP
3C
6E
FC
F8
F0
7E
3C
ENDCHAR
STARTCHAR U+E14E
ENCODING 57678
SWIDTH 1152 0
DWIDTH 12 0
BBX 7 7 2 0
BITMAP
06
1E
7E
FE
7E
1E
06
ENDCHAR
STARTCHAR U+E14F
ENCODING 57679
SWIDTH 1152 0
DWIDTH 12 0
BBX 7 7 2 0
BITMAP
C0
F0
FC
FE
FC
F0
C0
ENDCHAR
STARTCHAR U+E150
ENCODING 57680
SWIDTH 1152 0
DWIDTH 12 0
BBX 8 7 2 0
BITMAP
18
2C
6E
E3
7E
3C
18
ENDCHAR
STARTCHAR U+E151
ENCODING 57681
SWIDTH 1152 0
DWIDTH 12 0
BBX 7 7 2 0
BITMAP
38
6C
EE
E2
FE
7C
38
ENDCHAR
STARTCHAR U+E152
ENCODING 57682
SWIDTH 1152 0
DWIDTH 12 0
BBX 8 7 2 0
BITMAP
10
32
F1
F5
F1
32
10
ENDCHAR
STARTCHAR U+E153
ENCODING 57683
SWIDTH 1152 0
DWIDTH 12 0
BBX 8 8 2 0
BITMAP
18
3C
7E
FF
FF
7E
18
3C
ENDCHAR
STARTCHAR U+E154
ENCODING 57684
SWIDTH 1152 0
DWIDTH 12 0
BBX 8 7 2 0
BITMAP
18
3C
7E
FF
7E
18
3C
ENDCHAR
STARTCHAR U+E155
ENCODING 57685
SWIDTH 1152 0
DWIDTH 12 0
BBX 8 7 2 0
BITMAP
18
3C
7E
FF
3C
3C
3C
ENDCHAR
STARTCHAR U+E156
ENCODING 57686
SWIDTH 1152 0
DWIDTH 12 0
BBX 8 7 2 0
BITMAP
3C
3C
3C
FF
7E
3C
18
ENDCHAR
STARTCHAR U+E157
ENCODING 57687
SWIDTH 1152 0
DWIDTH 12 0
BBX 7 7 2 0
BITMAP
10
18
FC
FE
FC
18
10
ENDCHAR
STARTCHAR U+E158
ENCODING 57688
SWIDTH 1152 0
DWIDTH 12 0
BBX 7 7 2 0
BITMAP
10
30
7E
FE
7E
30
10
ENDCHAR
STARTCHAR U+E159
ENCODING 57689
SWIDTH 1152 0
DWIDTH 12 0
BBX 8 6 2 0
BITMAP
18
3C
7E
FF
00
FF
ENDCHAR
STARTCHAR U+E15A
ENCODING 57690
SWIDTH 1152 0
DWIDTH 12 0
BBX 7 6 2 0
BITMAP
10
38
7C
FE
00
FE
ENDCHAR
STARTCHAR U+E15B
ENCODING 57691
SWIDTH 1152 0
DWIDTH 12 0
BBX 8 6 2 0
BITMAP
FE
82
83
83
82
FE
ENDCHAR
STARTCHAR U+E15C
ENCODING 57692
SWIDTH 1152 0
DWIDTH 12 0
BBX 8 6 2 0
BITMAP
FE
82
A3
B3
82
FE
ENDCHAR
STARTCHAR U+E15D
ENCODING 57693
SWIDTH 1152 0
DWIDTH 12 0
BBX 8 6 2 0
BITMAP
FE
82
B3
BB
82
FE
ENDCHAR
STARTCHAR U+E15E
ENCODING 57694
SWIDTH 1152 0
DWIDTH 12 0
BBX 8 6 2 0
BITMAP
FE
82
BB
BB
82
FE
ENDCHAR
STARTCHAR U+E15F
ENCODING 57695
SWIDTH 1152 0
DWIDTH 12 0
BBX 5 7 3 0
BITMAP
70
D8
D8
F8
D8
D8
70
ENDCHAR
STARTCHAR U+E160
ENCODING 57696
SWIDTH 1152 0
DWIDTH 12 0
BBX 4 7 4 0
BITMAP
60
E0
60
60
60
60
F0
ENDCHAR
STARTCHAR U+E161
ENCODING 57697
SWIDTH 1152 0
DWIDTH 12 0
BBX 5 7 3 0
BITMAP
70
D8
18
30
60
C0
F8
ENDCHAR
STARTCHAR U+E162
ENCODING 57698
SWIDTH 1152 0
DWIDTH 12 0
BBX 5 7 3 0
BITMAP
70
D8
18
70
18
D8
70
ENDCHAR
STARTCHAR U+E163
ENCODING 57699
SWIDTH 1152 0
DWIDTH 12 0
BBX 6 7 3 0
BITMAP
18
38
58
98
FC
18
18
ENDCHAR
STARTCHAR U+E164
ENCODING 57700
SWIDTH 1152 0
DWIDTH 12 0
BBX 5 7 3 0
BITMAP
F8
C0
F0
18
18
D8
70
ENDCHAR
STARTCHAR U+E165
ENCODING 57701
SWIDTH 1152 0
DWIDTH 12 0
BBX 5 7 3 0
BITMAP
30
60
C0
F0
D8
D8
70
ENDCHAR
STARTCHAR U+E166
ENCODING 57702
SWIDTH 1152 0
DWIDTH 12 0
BBX 5 7 3 0
BITMAP
F8
18
30
30
60
60
60
ENDCHAR
STARTCHAR U+E167
ENCODING 57703
SWIDTH 1152 0
DWIDTH 12 0
BBX 5 7 3 0
BITMAP
70
D8
D8
70
D8
D8
70
ENDCHAR
STARTCHAR U+E168
ENCODING 57704
SWIDTH 1152 0
DWIDTH 12 0
BBX 5 7 3 0
BITMAP
70
D8
D8
78
18
30
60
ENDCHAR
STARTCHAR U+E169
ENCODING 57705
SWIDTH 1152 0
DWIDTH 12 0
BBX 6 8 3 0
BITMAP
78
CC
CC
DC
EC
CC
CC
78
ENDCHAR
STARTCHAR U+E16A
ENCODING 57706
SWIDTH 1152 0
DWIDTH 12 0
BBX 4 8 4 0
BITMAP
60
E0
60
60
60
60
60
F0
ENDCHAR
STARTCHAR U+E16B
ENCODING 57707
SWIDTH 1152 0
DWIDTH 12 0
BBX 6 8 3 0
BITMAP
78
CC
0C
18
30
60
C0
FC
ENDCHAR
STARTCHAR U+E16C
ENCODING 57708
SWIDTH 1152 0
DWIDTH 12 0
BBX 6 8 3 0
BITMAP
78
CC
0C
38
0C
0C
CC
78
ENDCHAR
STARTCHAR U+E16D
ENCODING 57709
SWIDTH 1152 0
DWIDTH 12 0
BBX 6 8 3 0
BITMAP
18
38
58
98
FC
18
18
18
ENDCHAR
STARTCHAR U+E16E
ENCODING 57710
SWIDTH 1152 0
DWIDTH 12 0
BBX 6 8 3 0
BITMAP
FC
C0
C0
F8
0C
0C
CC
78
ENDCHAR
STARTCHAR U+E16F
ENCODING 57711
SWIDTH 1152 0
DWIDTH 12 0
BBX 6 8 3 0
BITMAP
38
60
C0
F8
CC
CC
CC
78
ENDCHAR
STARTCHAR U+E170
ENCODING 57712
SWIDTH 1152 0
DWIDTH 12 0
BBX 6 8 3 0
BITMAP
FC
0C
0C
18
18
30
30
30
ENDCHAR
STARTCHAR U+E171
ENCODING 57713
SWIDTH 1152 0
DWIDTH 12 0
BBX 6 8 3 0
BITMAP
78
CC
CC
78
CC
CC
CC
78
ENDCHAR
STARTCHAR U+E172
ENCODING 57714
SWIDTH 1152 0
DWIDTH 12 0
BBX 6 8 3 0
BITMAP
78
CC
CC
CC
7C
0C
18
70
ENDCHAR
STARTCHAR U+E173
ENCODING 57715
SWIDTH 1152 0
DWIDTH 12 0
BBX 6 7 3 0
BITMAP
FC
CC
DC
FC
EC
CC
FC
ENDCHAR
STARTCHAR U+E174
ENCODING 57716
SWIDTH 1152 0
DWIDTH 12 0
BBX 3 7 4 0
BITMAP
60
E0
60
60
60
60
60
ENDCHAR
STARTCHAR U+E175
ENCODING 57717
SWIDTH 1152 0
DWIDTH 12 0
BBX 6 7 3 0
BITMAP
FC
0C
0C
FC
C0
C0
FC
ENDCHAR
STARTCHAR U+E176
ENCODING 57718
SWIDTH 1152 0
DWIDTH 12 0
BBX 6 7 3 0
BITMAP
FC
0C
0C
FC
0C
0C
FC
ENDCHAR
STARTCHAR U+E177
ENCODING 57719
SWIDTH 1152 0
DWIDTH 12 0
BBX 6 7 3 0
BITMAP
CC
CC
CC
FC
0C
0C
0C
ENDCHAR
STARTCHAR U+E178
ENCODING 57720
SWIDTH 1152 0
DWIDTH 12 0
BBX 6 7 3 0
BITMAP
FC
C0
C0
FC
0C
0C
FC
ENDCHAR
STARTCHAR U+E179
ENCODING 57721
SWIDTH 1152 0
DWIDTH 12 0
BBX 6 7 3 0
BITMAP
FC
C0
C0
FC
CC
CC
FC
ENDCHAR
STARTCHAR U+E17A
ENCODING 57722
SWIDTH 1152 0
DWIDTH 12 0
BBX 6 7 3 0
BITMAP
FC
0C
0C
0C
0C
0C
0C
ENDCHAR
STARTCHAR U+E17B
ENCODING 57723
SWIDTH 1152 0
DWIDTH 12 0
BBX 6 7 3 0
BITMAP
FC
CC
CC
78
CC
CC
FC
ENDCHAR
STARTCHAR U+E17C
ENCODING 57724
SWIDTH 1152 0
DWIDTH 12 0
BBX 6 7 3 0
BITMAP
FC
CC
CC
FC
0C
0C
0C
ENDCHAR
STARTCHAR U+E17D
ENCODING 57725
SWIDTH 1152 0
DWIDTH 12 0
BBX 6 8 3 0
BITMAP
FC
CC
DC
DC
EC
EC
CC
FC
ENDCHAR
STARTCHAR U+E17E
ENCODING 57726
SWIDTH 1152 0
DWIDTH 12 0
BBX 4 8 4 0
BITMAP
30
70
F0
30
30
30
30
30
ENDCHAR
STARTCHAR U+E17F
ENCODING 57727
SWIDTH 1152 0
DWIDTH 12 0
BBX 6 8 3 0
BITMAP
FC
0C
0C
FC
C0
C0
C0
FC
ENDCHAR
STARTCHAR U+E180
ENCODING 57728
SWIDTH 1152 0
DWIDTH 12 0
BBX 6 8 3 0
BITMAP
FC
0C
0C
FC
0C
0C
0C
FC
ENDCHAR
STARTCHAR U+E181
ENCODING 57729
SWIDTH 1152 0
DWIDTH 12 0
BBX 6 8 3 0
BITMAP
CC
CC
CC
FC
0C
0C
0C
0C
ENDCHAR
STARTCHAR U+E182
ENCODING 57730
SWIDTH 1152 0
DWIDTH 12 0
BBX 6 8 3 0
BITMAP
FC
C0
C0
FC
0C
0C
0C
FC
ENDCHAR
STARTCHAR U+E183
ENCODING 57731
SWIDTH 1152 0
DWIDTH 12 0
BBX 6 8 3 0
BITMAP
FC
C0
C0
FC
CC
CC
CC
FC
ENDCHAR
STARTCHAR U+E184
ENCODING 57732
SWIDTH 1152 0
DWIDTH 12 0
BBX 6 8 3 0
BITMAP
FC
0C
0C
0C
0C
0C
0C
0C
ENDCHAR
STARTCHAR U+E185
ENCODING 57733
SWIDTH 1152 0
DWIDTH 12 0
BBX 6 8 3 0
BITMAP
FC
CC
CC
78
CC
CC
CC
FC
ENDCHAR
STARTCHAR U+E186
ENCODING 57734
SWIDTH 1152 0
DWIDTH 12 0
BBX 6 8 3 0
BITMAP
FC
CC
CC
FC
0C
0C
0C
FC
ENDCHAR
STARTCHAR U+E187
ENCODING 57735
SWIDTH 1152 0
DWIDTH 12 0
BBX 7 8 3 0
BITMAP
FE
EE
CE
EE
EE
EE
C6
FE
ENDCHAR
STARTCHAR U+E188
ENCODING 57736
SWIDTH 1152 0
DWIDTH 12 0
BBX 7 8 3 0
BITMAP
FE
C6
BA
F6
EE
DE
82
FE
ENDCHAR
STARTCHAR U+E189
ENCODING 57737
SWIDTH 1152 0
DWIDTH 12 0
BBX 7 8 3 0
BITMAP
FE
C6
BA
E6
FA
BA
C6
FE
ENDCHAR
STARTCHAR U+E18A
ENCODING 57738
SWIDTH 1152 0
DWIDTH 12 0
BBX 7 8 3 0
BITMAP
FE
F6
E6
D6
82
F6
F6
FE
ENDCHAR
STARTCHAR U+E18B
ENCODING 57739
SWIDTH 1152 0
DWIDTH 12 0
BBX 7 8 3 0
BITMAP
FE
82
BE
86
FA
BA
C6
FE
ENDCHAR
STARTCHAR U+E18C
ENCODING 57740
SWIDTH 1152 0
DWIDTH 12 0
BBX 7 8 3 0
BITMAP
FE
C6
BE
86
BA
BA
C6
FE
ENDCHAR
STARTCHAR U+E18D
ENCODING 57741
SWIDTH 1152 0
DWIDTH 12 0
BBX 7 8 3 0
BITMAP
FE
82
FA
F6
F6
EE
EE
FE
ENDCHAR
STARTCHAR U+E18E
ENCODING 57742
SWIDTH 1152 0
DWIDTH 12 0
BBX 7 8 3 0
BITMAP
FE
C6
BA
C6
BA
BA
C6
FE
ENDCHAR
STARTCHAR U+E18F
ENCODING 57743
SWIDTH 1152 0
DWIDTH 12 0
BBX 7 8 3 0
BITMAP
FE
C6
BA
BA
C2
FA
C6
FE
ENDCHAR
STARTCHAR U+E190
ENCODING 57744
SWIDTH 1152 0
DWIDTH 12 0
BBX 10 4 1 1
BITMAP
6180
F3C0
F3C0
6180
ENDCHAR
STARTCHAR U+E191
ENCODING 57745
SWIDTH 1152 0
DWIDTH 12 0
BBX 4 4 4 1
BITMAP
60
F0
F0
60
ENDCHAR
STARTCHAR U+E192
ENCODING 57746
SWIDTH 1152 0
DWIDTH 12 0
BBX 2 5 5 1
BITMAP
C0
C0
00
C0
C0
ENDCHAR
STARTCHAR U+E193
ENCODING 57747
SWIDTH 1152 0
DWIDTH 12 0
BBX 2 6 5 0
BITMAP
C0
C0
00
00
C0
C0
ENDCHAR
STARTCHAR U+E194
ENCODING 57748
SWIDTH 1152 0
DWIDTH 12 0
BBX 6 5 3 1
BITMAP
CC
CC
00
CC
CC
ENDCHAR
STARTCHAR U+E195
ENCODING 57749
SWIDTH 1152 0
DWIDTH 12 0
BBX 6 6 3 0
BITMAP
CC
CC
00
00
CC
CC
ENDCHAR
STARTCHAR U+E196
ENCODING 57750
SWIDTH 1152 0
DWIDTH 12 0
BBX 6 8 3 0
BITMAP
CC
CC
00
CC
CC
00
CC
CC
ENDCHAR
STARTCHAR char57751
ENCODING 57751
SWIDTH 1152 0
DWIDTH 12 0
BBX 7 8 2 0
BITMAP
0A
0A
AE
E4
E4
44
FC
E4
ENDCHAR
STARTCHAR char57752
ENCODING 57752
SWIDTH 1152 0
DWIDTH 12 0
BBX 8 8 2 0
BITMAP
02
8D
75
77
72
22
7E
72
ENDCHAR
STARTCHAR char57753
ENCODING 57753
SWIDTH 1152 0
DWIDTH 12 0
BBX 8 8 2 0
BITMAP
05
8D
77
72
72
22
7E
72
ENDCHAR
STARTCHAR char57754
ENCODING 57754
SWIDTH 1152 0
DWIDTH 12 0
BBX 8 8 2 0
BITMAP
81
81
FF
5A
DB
FF
42
7E
ENDCHAR
STARTCHAR char57755
ENCODING 57755
SWIDTH 1152 0
DWIDTH 12 0
BBX 8 8 2 0
BITMAP
7E
FF
FF
FF
FE
C0
C0
60
ENDCHAR
STARTCHAR char57756
ENCODING 57756
SWIDTH 1152 0
DWIDTH 12 0
BBX 8 8 2 0
BITMAP
F8
88
9F
F1
31
3F
24
FF
ENDCHAR
STARTCHAR char57757
ENCODING 57757
SWIDTH 1152 0
DWIDTH 12 0
BBX 8 8 2 0
BITMAP
42
24
7E
5A
FF
A5
BD
24
ENDCHAR
STARTCHAR char57758
ENCODING 57758
SWIDTH 1152 0
DWIDTH 12 0
BBX 8 8 2 0
BITMAP
FF
FF
18
18
FF
DB
C3
FF
ENDCHAR
STARTCHAR char57759
ENCODING 57759
SWIDTH 1152 0
DWIDTH 12 0
BBX 8 8 2 0
BITMAP
7E
FF
FF
FF
7F
06
04
08
ENDCHAR
STARTCHAR char57760
ENCODING 57760
SWIDTH 1152 0
DWIDTH 12 0
BBX 8 8 2 0
BITMAP
3C
66
F7
F5
A5
A7
4E
3C
ENDCHAR
STARTCHAR char57761
ENCODING 57761
SWIDTH 1152 0
DWIDTH 12 0
BBX 8 8 2 0
BITMAP
7E
FF
81
A1
91
A1
81
7E
ENDCHAR
STARTCHAR char57762
ENCODING 57762
SWIDTH 1152 0
DWIDTH 12 0
BBX 8 8 2 0
BITMAP
7E
FF
81
BD
81
BD
81
7E
ENDCHAR
STARTCHAR char57763
ENCODING 57763
SWIDTH 1152 0
DWIDTH 12 0
BBX 8 8 2 0
BITMAP
7E
FF
81
A5
81
BD
81
7E
ENDCHAR
STARTCHAR char57764
ENCODING 57764
SWIDTH 1152 0
DWIDTH 12 0
BBX 8 8 2 0
BITMAP
F7
F7
F0
07
F7
F0
F7
F7
ENDCHAR
STARTCHAR char57765
ENCODING 57765
SWIDTH 1152 0
DWIDTH 12 0
BBX 8 8 2 0
BITMAP
EF
EF
EF
EF
00
DB
DB
DB
ENDCHAR
STARTCHAR char57766
ENCODING 57766
SWIDTH 1152 0
DWIDTH 12 0
BBX 8 8 2 0
BITMAP
3F
3F
21
21
21
21
E7
E7
ENDCHAR
STARTCHAR char57767
ENCODING 57767
SWIDTH 1152 0
DWIDTH 12 0
BBX 8 8 2 0
BITMAP
7E
FF
FF
FF
FF
7E
0C
18
ENDCHAR
STARTCHAR char57768
ENCODING 57768
SWIDTH 1152 0
DWIDTH 12 0
BBX 9 7 1 0
BITMAP
FF80
BE80
DD80
EB80
D580
BE80
FF80
ENDCHAR
STARTCHAR char57769
ENCODING 57769
SWIDTH 1152 0
DWIDTH 12 0
BBX 6 12 3 -2
BITMAP
80
C0
E0
F0
F8
FC
FC
F8
F0
E0
C0
80
ENDCHAR
STARTCHAR char57770
ENCODING 57770
SWIDTH 1152 0
DWIDTH 12 0
BBX 6 12 3 -2
BITMAP
80
40
20
10
08
04
04
08
10
20
40
80
ENDCHAR
STARTCHAR char57771
ENCODING 57771
SWIDTH 1152 0
DWIDTH 12 0
BBX 6 12 3 -2
BITMAP
04
0C
1C
3C
7C
FC
FC
7C
3C
1C
0C
04
ENDCHAR
STARTCHAR char57772
ENCODING 57772
SWIDTH 1152 0
DWIDTH 12 0
BBX 6 12 3 -2
BITMAP
04
08
10
20
40
80
80
40
20
10
08
04
ENDCHAR
STARTCHAR char57773
ENCODING 57773
SWIDTH 1152 0
DWIDTH 12 0
BBX 5 12 3 -2
BITMAP
80
C0
E0
F0
F8
F8
F8
F8
F8
F8
F8
F8
ENDCHAR
STARTCHAR char57774
ENCODING 57774
SWIDTH 1152 0
DWIDTH 12 0
BBX 5 12 3 -2
BITMAP
F8
F8
F8
F8
F8
F8
F8
F8
78
38
18
08
ENDCHAR
STARTCHAR char57775
ENCODING 57775
SWIDTH 1152 0
DWIDTH 12 0
BBX 9 7 1 0
BITMAP
7F00
8080
3E00
4100
1C00
0000
0800
ENDCHAR
STARTCHAR char57776
ENCODING 57776
SWIDTH 1152 0
DWIDTH 12 0
BBX 6 8 3 0
BITMAP
78
FC
84
B4
B4
B4
84
FC
ENDCHAR
STARTCHAR char57777
ENCODING 57777
SWIDTH 1152 0
DWIDTH 12 0
BBX 1 12 5 -2
BITMAP
80
80
80
80
80
80
80
80
80
80
80
80
ENDCHAR
STARTCHAR char57778
ENCODING 57778
SWIDTH 1152 0
DWIDTH 12 0
BBX 8 8 2 0
BITMAP
FF
1F
0F
6F
F6
F0
F8
FF
ENDCHAR
STARTCHAR char57779
ENCODING 57779
SWIDTH 1152 0
DWIDTH 12 0
BBX 8 8 2 0
BITMAP
0C
14
27
E4
E4
27
14
0C
ENDCHAR
STARTCHAR char57780
ENCODING 57780
SWIDTH 1152 0
DWIDTH 12 0
BBX 7 8 2 0
BITMAP
10
10
38
38
6C
44
EE
82
ENDCHAR
STARTCHAR char57781
ENCODING 57781
SWIDTH 1152 0
DWIDTH 12 0
BBX 6 8 3 0
BITMAP
30
A8
6C
38
38
6C
A8
30
ENDCHAR
STARTCHAR char57782
ENCODING 57782
SWIDTH 1152 0
DWIDTH 12 0
BBX 8 8 2 0
BITMAP
C3
24
18
DB
3C
7E
BD
99
ENDCHAR
STARTCHAR char57783
ENCODING 57783
SWIDTH 1152 0
DWIDTH 12 0
BBX 8 8 2 0
BITMAP
C3
24
24
DB
3C
7E
99
42
ENDCHAR
STARTCHAR char57784
ENCODING 57784
SWIDTH 1152 0
DWIDTH 12 0
BBX 8 8 2 0
BITMAP
81
C3
BD
FF
99
FF
7E
BD
ENDCHAR
STARTCHAR char57785
ENCODING 57785
SWIDTH 1152 0
DWIDTH 12 0
BBX 8 8 2 0
BITMAP
3C
7A
F7
EF
E1
FF
7E
3C
ENDCHAR
STARTCHAR char57786
ENCODING 57786
SWIDTH 1152 0
DWIDTH 12 0
BBX 8 8 2 0
BITMAP
81
DE
62
72
3A
7C
EE
C3
ENDCHAR
STARTCHAR char57787
ENCODING 57787
SWIDTH 1152 0
DWIDTH 12 0
BBX 8 8 2 0
BITMAP
FF
81
81
81
BD
AD
AD
7F
ENDCHAR
STARTCHAR char57788
ENCODING 57788
SWIDTH 1152 0
DWIDTH 12 0
BBX 8 8 2 0
BITMAP
3C
42
81
81
81
81
42
3C
ENDCHAR
STARTCHAR char57789
ENCODING 57789
SWIDTH 1152 0
DWIDTH 12 0
BBX 8 6 2 0
BITMAP
D8
40
40
21
9F
40
ENDCHAR
STARTCHAR char57790
ENCODING 57790
SWIDTH 1152 0
DWIDTH 12 0
BBX 8 6 2 0
BITMAP
1B
02
02
84
F9
02
ENDCHAR
STARTCHAR char57791
ENCODING 57791
SWIDTH 1152 0
DWIDTH 12 0
BBX 8 8 2 0
BITMAP
81
C3
BD
FF
99
DB
7E
18
ENDCHAR
STARTCHAR char57792
ENCODING 57792
SWIDTH 1152 0
DWIDTH 12 0
BBX 8 8 2 0
BITMAP
62
99
3D
66
66
BC
99
46
ENDCHAR
STARTCHAR char57793
ENCODING 57793
SWIDTH 1152 0
DWIDTH 12 0
BBX 8 8 2 0
BITMAP
8F
DA
BC
E6
67
3D
5B
F1
ENDCHAR
STARTCHAR char57794
ENCODING 57794
SWIDTH 1152 0
DWIDTH 12 0
BBX 8 8 2 0
BITMAP
3C
7E
FF
FF
FF
FF
7E
3C
ENDCHAR
STARTCHAR char57795
ENCODING 57795
SWIDTH 1152 0
DWIDTH 12 0
BBX 8 8 2 0
BITMAP
3C
72
F1
F1
F1
F1
72
3C
ENDCHAR
STARTCHAR char57796
ENCODING 57796
SWIDTH 1152 0
DWIDTH 12 0
BBX 8 8 2 0
BITMAP
3C
66
FF
E7
E7
E7
66
3C
ENDCHAR
STARTCHAR char57797
ENCODING 57797
SWIDTH 1152 0
DWIDTH 12 0
BBX 8 8 2 0
BITMAP
FF
E7
FF
E7
E7
E7
E7
FF
ENDCHAR
STARTCHAR char57798
ENCODING 57798
SWIDTH 1152 0
DWIDTH 12 0
BBX 7 8 2 0
BITMAP
EE
EE
EE
82
FE
FE
FE
7C
ENDCHAR
STARTCHAR char57799
ENCODING 57799
SWIDTH 1152 0
DWIDTH 12 0
BBX 8 8 2 0
BITMAP
C0
F0
78
7C
3C
1A
05
03
ENDCHAR
STARTCHAR char57800
ENCODING 57800
SWIDTH 1152 0
DWIDTH 12 0
BBX 8 8 2 0
BITMAP
3C
42
81
81
FF
3C
3C
3C
ENDCHAR
STARTCHAR char57801
ENCODING 57801
SWIDTH 1152 0
DWIDTH 12 0
BBX 8 8 2 0
BITMAP
32
C9
C9
E9
E9
C9
C9
32
ENDCHAR
STARTCHAR char57802
ENCODING 57802
SWIDTH 1152 0
DWIDTH 12 0
BBX 8 8 2 0
BITMAP
70
C8
84
82
41
21
13
0E
ENDCHAR
STARTCHAR char57803
ENCODING 57803
SWIDTH 1152 0
DWIDTH 12 0
BBX 8 8 2 0
BITMAP
0E
11
23
47
7E
4C
90
E0
ENDCHAR
STARTCHAR char57804
ENCODING 57804
SWIDTH 1152 0
DWIDTH 12 0
BBX 8 8 2 0
BITMAP
02
09
25
95
95
25
09
02
ENDCHAR
STARTCHAR char57805
ENCODING 57805
SWIDTH 1152 0
DWIDTH 12 0
BBX 9 9 1 -1
BITMAP
5500
5500
FF80
8080
D580
8080
D580
8080
FF80
ENDCHAR
STARTCHAR code
ENCODING 57806
SWIDTH 1152 0
DWIDTH 12 0
BBX 8 9 2 -1
BITMAP
40
60
30
30
18
3C
6C
66
C3
ENDCHAR
STARTCHAR char57807
ENCODING 57807
SWIDTH 1152 0
DWIDTH 12 0
BBX 7 9 2 -1
BITMAP
F8
88
8E
82
82
82
82
82
FE
ENDCHAR
STARTCHAR images
ENCODING 57808
SWIDTH 1152 0
DWIDTH 12 0
BBX 12 7 0 0
BITMAP
FFF0
8010
8050
A2F0
F710
FFB0
FFF0
ENDCHAR
STARTCHAR media
ENCODING 57809
SWIDTH 1152 0
DWIDTH 12 0
BBX 11 9 0 -1
BITMAP
FFE0
8020
8820
8C20
8E20
8C20
8820
8020
FFE0
ENDCHAR
STARTCHAR char57810
ENCODING 57810
SWIDTH 1152 0
DWIDTH 12 0
BBX 11 7 0 0
BITMAP
FFE0
8820
8C20
8E20
8C20
8820
FFE0
ENDCHAR
STARTCHAR git
ENCODING 57811
SWIDTH 1152 0
DWIDTH 12 0
BBX 12 10 0 -1
BITMAP
6060
7FE0
7FE0
FFF0
FFF0
C030
D9B0
D9B0
6060
1F80
ENDCHAR
STARTCHAR punk_small
ENCODING 57812
SWIDTH 1152 0
DWIDTH 12 0
BBX 11 10 0 -1
BITMAP
0E00
1F00
3C80
4040
DB60
C060
FB60
5B40
1B00
0E00
ENDCHAR
STARTCHAR char57813
ENCODING 57813
SWIDTH 1152 0
DWIDTH 12 0
BBX 9 10 1 -1
BITMAP
FC00
F600
F700
F080
FF80
C180
FF80
C180
FF80
FF80
ENDCHAR
STARTCHAR folder
ENCODING 57814
SWIDTH 1152 0
DWIDTH 12 0
BBX 10 9 1 -1
BITMAP
F000
FFC0
8FC0
8040
8040
8040
8040
8040
FFC0
ENDCHAR
STARTCHAR monitor
ENCODING 57815
SWIDTH 1152 0
DWIDTH 12 0
BBX 10 9 1 -1
BITMAP
FFC0
8040
8040
8040
8040
FFC0
FFC0
1E00
1E00
ENDCHAR
STARTCHAR laptop
ENCODING 57816
SWIDTH 1152 0
DWIDTH 12 0
BBX 12 9 0 -1
BITMAP
7FE0
4020
4020
4020
4020
3FC0
4020
F9F0
FFF0
ENDCHAR
STARTCHAR folder_open
ENCODING 57817
SWIDTH 1152 0
DWIDTH 12 0
BBX 11 8 0 0
BITMAP
F000
9F00
8080
9FC0
A020
C040
80C0
FF80
ENDCHAR
STARTCHAR image
ENCODING 57818
SWIDTH 1152 0
DWIDTH 12 0
BBX 12 9 0 -1
BITMAP
FFF0
A010
F090
A390
97D0
BFD0
FFF0
8010
FFF0
ENDCHAR
STARTCHAR tag
ENCODING 57819
SWIDTH 1152 0
DWIDTH 12 0
BBX 8 8 2 0
BITMAP
F0
98
9C
FE
7F
3F
1E
0C
ENDCHAR
STARTCHAR char57820
ENCODING 57820
SWIDTH 1152 0
DWIDTH 12 0
BBX 11 9 0 -1
BITMAP
F600
9B00
9D80
FEC0
7F60
3F60
1EC0
0D80
0100
ENDCHAR
STARTCHAR film_large
ENCODING 57821
SWIDTH 1152 0
DWIDTH 12 0
BBX 12 9 0 -1
BITMAP
FFF0
A050
E070
A050
FFF0
A050
E070
A050
FFF0
ENDCHAR
STARTCHAR barcode
ENCODING 57822
SWIDTH 1152 0
DWIDTH 12 0
BBX 12 9 0 -1
BITMAP
FFF0
B550
B550
B550
B550
B550
B550
B550
FFF0
ENDCHAR
STARTCHAR book
ENCODING 57823
SWIDTH 1152 0
DWIDTH 12 0
BBX 9 9 1 -1
BITMAP
3F80
3F80
6180
7F80
C380
FF80
FF00
8100
7E00
ENDCHAR
STARTCHAR char57824
ENCODING 57824
SWIDTH 1152 0
DWIDTH 12 0
BBX 10 8 1 0
BITMAP
F000
FFC0
FFC0
FFC0
FFC0
FFC0
FFC0
FFC0
ENDCHAR
STARTCHAR char57825
ENCODING 57825
SWIDTH 1152 0
DWIDTH 12 0
BBX 11 8 0 0
BITMAP
F000
FF00
FF80
E080
DFE0
BFC0
7F80
FF00
ENDCHAR
STARTCHAR char57826
ENCODING 57826
SWIDTH 1152 0
DWIDTH 12 0
BBX 7 9 2 -1
BITMAP
FE
FE
FE
FE
FE
FE
EE
C6
82
ENDCHAR
STARTCHAR char57827
ENCODING 57827
SWIDTH 1152 0
DWIDTH 12 0
BBX 7 9 2 -1
BITMAP
FE
82
82
82
82
92
AA
C6
82
ENDCHAR
STARTCHAR drop
ENCODING 57828
SWIDTH 1152 0
DWIDTH 12 0
BBX 7 10 2 -1
BITMAP
10
38
7C
7C
FE
DE
DE
DE
7C
38
ENDCHAR
STARTCHAR pen
ENCODING 57829
SWIDTH 1152 0
DWIDTH 12 0
BBX 11 11 0 -2
BITMAP
00C0
01E0
03E0
05C0
0E80
1F00
3E00
7C00
B800
D000
E000
ENDCHAR
STARTCHAR char57830
ENCODING 57830
SWIDTH 1152 0
DWIDTH 12 0
BBX 9 9 1 -1
BITMAP
3E00
6300
FF80
4100
5500
5500
5500
4100
7F00
ENDCHAR
STARTCHAR camera
ENCODING 57831
SWIDTH 1152 0
DWIDTH 12 0
BBX 10 8 1 0
BITMAP
FFC0
9040
FFC0
B3C0
EDC0
EDC0
F3C0
FFC0
ENDCHAR
STARTCHAR punk_large
ENCODING 57832
SWIDTH 1152 0
DWIDTH 12 0
BBX 12 11 0 -2
BITMAP
0F00
1F80
3E40
4020
D9B0
C030
F9B0
D9B0
59A0
1980
0F00
ENDCHAR
STARTCHAR reddit
ENCODING 57833
SWIDTH 1152 0
DWIDTH 12 0
BBX 12 12 0 -2
BITMAP
03E0
02E0
0600
79E0
A050
C030
9990
9990
8010
4F20
30C0
0F00
ENDCHAR
STARTCHAR hackernews
ENCODING 57834
SWIDTH 1152 0
DWIDTH 12 0
BBX 8 8 2 0
BITMAP
7E
3C
99
C3
E7
E7
E7
E7
ENDCHAR
STARTCHAR youtube
ENCODING 57835
SWIDTH 1152 0
DWIDTH 12 0
BBX 10 8 1 0
BITMAP
7F80
FFC0
F7C0
F3C0
F3C0
F7C0
FFC0
7F80
ENDCHAR
STARTCHAR char57836
ENCODING 57836
SWIDTH 1152 0
DWIDTH 12 0
BBX 11 8 0 0
BITMAP
8000
C000
6000
3000
3000
6000
C000
87E0
ENDCHAR
STARTCHAR char57837
ENCODING 57837
SWIDTH 1152 0
DWIDTH 12 0
BBX 9 10 1 -1
BITMAP
FC00
8600
8500
8780
8080
BE80
8080
BE80
8080
FF80
ENDCHAR
STARTCHAR find
ENCODING 57838
SWIDTH 1152 0
DWIDTH 12 0
BBX 10 10 1 -1
BITMAP
3800
4400
8200
8200
8200
4400
3A00
0100
0080
0040
ENDCHAR
STARTCHAR terminal_big
ENCODING 57839
SWIDTH 1152 0
DWIDTH 12 0
BBX 10 8 1 0
BITMAP
FFC0
FFC0
8040
A040
9040
A740
8040
FFC0
ENDCHAR
STARTCHAR char57840
ENCODING 57840
SWIDTH 1152 0
DWIDTH 12 0
BBX 12 10 0 -1
BITMAP
0660
0F60
19E0
30E0
6060
C030
CF30
4920
4920
79E0
ENDCHAR
STARTCHAR char57841
ENCODING 57841
SWIDTH 1152 0
DWIDTH 12 0
BBX 10 7 1 0
BITMAP
FFC0
0000
FFC0
0000
FFC0
0000
FFC0
ENDCHAR
STARTCHAR char57842
ENCODING 57842
SWIDTH 1152 0
DWIDTH 12 0
BBX 10 7 1 0
BITMAP
BFC0
0000
BFC0
0000
BFC0
0000
BFC0
ENDCHAR
STARTCHAR char57843
ENCODING 57843
SWIDTH 1152 0
DWIDTH 12 0
BBX 10 7 1 0
BITMAP
FF00
0000
FF80
0000
FF00
0000
FFC0
ENDCHAR
STARTCHAR char57844
ENCODING 57844
SWIDTH 1152 0
DWIDTH 12 0
BBX 10 7 1 0
BITMAP
3FC0
0000
7FC0
0000
3FC0
0000
FFC0
ENDCHAR
STARTCHAR char57845
ENCODING 57845
SWIDTH 1152 0
DWIDTH 12 0
BBX 10 7 1 0
BITMAP
FE40
FEC0
FFC0
FFC0
FFC0
FEC0
FE40
ENDCHAR
STARTCHAR char57846
ENCODING 57846
SWIDTH 1152 0
DWIDTH 12 0
BBX 7 12 2 -2
BITMAP
7C
7C
6C
6C
7C
7C
FE
FE
10
10
10
10
ENDCHAR
STARTCHAR char57847
ENCODING 57847
SWIDTH 1152 0
DWIDTH 12 0
BBX 9 12 1 -2
BITMAP
FF80
F880
F880
F880
F880
F880
F880
F980
7B00
3E00
1C00
0800
ENDCHAR
STARTCHAR char57848
ENCODING 57848
SWIDTH 1152 0
DWIDTH 12 0
BBX 6 6 3 0
BITMAP
04
0C
1C
3C
7C
FC
ENDCHAR
STARTCHAR char57849
ENCODING 57849
SWIDTH 1152 0
DWIDTH 12 0
BBX 6 6 3 0
BITMAP
80
C0
E0
F0
F8
FC
ENDCHAR
STARTCHAR char57850
ENCODING 57850
SWIDTH 1152 0
DWIDTH 12 0
BBX 6 6 3 0
BITMAP
FC
F8
F0
E0
C0
80
ENDCHAR
STARTCHAR char57851
ENCODING 57851
SWIDTH 1152 0
DWIDTH 12 0
BBX 6 6 3 0
BITMAP
FC
7C
3C
1C
0C
04
ENDCHAR
STARTCHAR char57852
ENCODING 57852
SWIDTH 1152 0
DWIDTH 12 0
BBX 5 7 3 0
BITMAP
50
50
D8
50
D8
50
50
ENDCHAR
STARTCHAR char57853
ENCODING 57853
SWIDTH 1152 0
DWIDTH 12 0
BBX 7 10 2 -1
BITMAP
38
FE
82
82
82
82
82
82
82
FE
ENDCHAR
STARTCHAR char57854
ENCODING 57854
SWIDTH 1152 0
DWIDTH 12 0
BBX 7 10 2 -1
BITMAP
38
FE
82
82
82
BA
BA
BA
82
FE
ENDCHAR
STARTCHAR char57855
ENCODING 57855
SWIDTH 1152 0
DWIDTH 12 0
BBX 7 10 2 -1
BITMAP
38
FE
82
BA
BA
BA
BA
BA
82
FE
ENDCHAR
STARTCHAR char57856
ENCODING 57856
SWIDTH 1152 0
DWIDTH 12 0
BBX 7 10 2 -1
BITMAP
38
FE
D6
D6
82
82
C6
EE
EE
FE
ENDCHAR
STARTCHAR char57857
ENCODING 57857
SWIDTH 1152 0
DWIDTH 12 0
BBX 7 10 2 -1
BITMAP
38
FE
F6
EE
CE
82
E6
EE
DE
FE
ENDCHAR
STARTCHAR char57858
ENCODING 57858
SWIDTH 1152 0
DWIDTH 12 0
BBX 7 9 2 -1
BITMAP
08
98
58
A8
D0
E8
34
1A
08
ENDCHAR
STARTCHAR char57859
ENCODING 57859
SWIDTH 1152 0
DWIDTH 12 0
BBX 8 9 2 -1
BITMAP
09
1A
38
F8
FB
F8
38
1A
09
ENDCHAR
STARTCHAR char57860
ENCODING 57860
SWIDTH 1152 0
DWIDTH 12 0
BBX 5 9 3 -1
BITMAP
08
18
38
F8
F8
F8
38
18
08
ENDCHAR
STARTCHAR char57861
ENCODING 57861
SWIDTH 1152 0
DWIDTH 12 0
BBX 7 7 2 0
BITMAP
3E
3E
22
3E
22
EE
EE
ENDCHAR
STARTCHAR char57862
ENCODING 57862
SWIDTH 1152 0
DWIDTH 12 0
BBX 6 5 3 1
BITMAP
90
D8
FC
D8
90
ENDCHAR
STARTCHAR char57863
ENCODING 57863
SWIDTH 1152 0
DWIDTH 12 0
BBX 6 5 3 1
BITMAP
24
6C
FC
6C
24
ENDCHAR
STARTCHAR char57864
ENCODING 57864
SWIDTH 1152 0
DWIDTH 12 0
BBX 5 6 3 0
BITMAP
20
70
F8
20
70
F8
ENDCHAR
STARTCHAR char57865
ENCODING 57865
SWIDTH 1152 0
DWIDTH 12 0
BBX 5 6 3 0
BITMAP
F8
70
20
F8
70
20
ENDCHAR
STARTCHAR char57866
ENCODING 57866
SWIDTH 1152 0
DWIDTH 12 0
BBX 7 5 2 1
BITMAP
92
DA
FE
DA
92
ENDCHAR
STARTCHAR char57867
ENCODING 57867
SWIDTH 1152 0
DWIDTH 12 0
BBX 7 5 2 1
BITMAP
92
B6
FE
B6
92
ENDCHAR
STARTCHAR char57868
ENCODING 57868
SWIDTH 1152 0
DWIDTH 12 0
BBX 6 5 3 1
BITMAP
94
D4
F4
D4
94
ENDCHAR
STARTCHAR berry_percent
ENCODING 57869
SWIDTH 1152 0
DWIDTH 12 0
BBX 5 7 3 0
BITMAP
48
A8
50
20
50
A8
90
ENDCHAR
STARTCHAR char57870
ENCODING 57870
SWIDTH 1152 0
DWIDTH 12 0
BBX 8 6 2 0
BITMAP
1C
3F
FC
FC
3F
1C
ENDCHAR
STARTCHAR char57871
ENCODING 57871
SWIDTH 1152 0
DWIDTH 12 0
BBX 11 8 0 0
BITMAP
0060
1C60
3F60
FC60
FC60
3F00
1C60
0060
ENDCHAR
STARTCHAR char57872
ENCODING 57872
SWIDTH 1152 0
DWIDTH 12 0
BBX 7 11 2 -1
BITMAP
38
FE
82
82
82
82
82
82
82
82
FE
ENDCHAR
STARTCHAR char57873
ENCODING 57873
SWIDTH 1152 0
DWIDTH 12 0
BBX 11 11 0 -1
BITMAP
3800
FE00
8260
8260
8260
8260
8260
8200
8260
8260
FE00
ENDCHAR
STARTCHAR char57874
ENCODING 57874
SWIDTH 1152 0
DWIDTH 12 0
BBX 11 11 0 -1
BITMAP
3800
FE00
8260
8260
8260
8260
8260
A200
B260
8260
FE00
ENDCHAR
STARTCHAR char57875
ENCODING 57875
SWIDTH 1152 0
DWIDTH 12 0
BBX 7 11 2 -1
BITMAP
38
FE
82
82
A2
B2
9A
AA
B2
82
FE
ENDCHAR
STARTCHAR char57876
ENCODING 57876
SWIDTH 1152 0
DWIDTH 12 0
BBX 7 11 2 -1
BITMAP
38
FE
82
9A
AA
B2
9A
AA
B2
82
FE
ENDCHAR
STARTCHAR char57877
ENCODING 57877
SWIDTH 1152 0
DWIDTH 12 0
BBX 6 10 3 -1
BITMAP
08
10
30
60
7C
F8
18
30
20
40
ENDCHAR
STARTCHAR char57878
ENCODING 57878
SWIDTH 1152 0
DWIDTH 12 0
BBX 5 9 3 -1
BITMAP
08
10
20
60
F8
30
20
40
80
ENDCHAR
STARTCHAR char57879
ENCODING 57879
SWIDTH 1152 0
DWIDTH 12 0
BBX 8 5 2 0
BITMAP
1B
0E
C4
CE
1B
ENDCHAR
STARTCHAR char57880
ENCODING 57880
SWIDTH 1152 0
DWIDTH 12 0
BBX 6 4 3 0
BITMAP
78
84
30
30
ENDCHAR
STARTCHAR char57881
ENCODING 57881
SWIDTH 1152 0
DWIDTH 12 0
BBX 8 6 2 0
BITMAP
7E
81
3C
42
18
18
ENDCHAR
STARTCHAR char57882
ENCODING 57882
SWIDTH 1152 0
DWIDTH 12 0
BBX 10 8 1 0
BITMAP
7F80
8040
3F00
4080
1E00
2100
0C00
0C00
ENDCHAR
STARTCHAR char57883
ENCODING 57883
SWIDTH 1152 0
DWIDTH 12 0
BBX 10 8 1 0
BITMAP
8000
8000
0000
86C0
8380
0100
8380
86C0
ENDCHAR
STARTCHAR char57884
ENCODING 57884
SWIDTH 1152 0
DWIDTH 12 0
BBX 3 8 1 0
BITMAP
80
80
00
80
80
00
E0
E0
ENDCHAR
STARTCHAR char57885
ENCODING 57885
SWIDTH 1152 0
DWIDTH 12 0
BBX 6 8 1 0
BITMAP
80
80
00
FC
FC
00
E0
E0
ENDCHAR
STARTCHAR char57886
ENCODING 57886
SWIDTH 1152 0
DWIDTH 12 0
BBX 9 8 1 0
BITMAP
FF80
FF80
0000
FC00
FC00
0000
E000
E000
ENDCHAR
STARTCHAR char57887
ENCODING 57887
SWIDTH 1152 0
DWIDTH 12 0
BBX 8 1 2 0
BITMAP
DB
ENDCHAR
STARTCHAR char57888
ENCODING 57888
SWIDTH 1152 0
DWIDTH 12 0
BBX 8 3 2 0
BITMAP
C0
C0
DB
ENDCHAR
STARTCHAR char57889
ENCODING 57889
SWIDTH 1152 0
DWIDTH 12 0
BBX 8 6 2 0
BITMAP
18
18
18
D8
D8
DB
ENDCHAR
STARTCHAR char57890
ENCODING 57890
SWIDTH 1152 0
DWIDTH 12 0
BBX 8 9 2 -1
BITMAP
03
03
03
1B
1B
1B
DB
DB
DB
ENDCHAR
STARTCHAR char57891
ENCODING 57891
SWIDTH 1152 0
DWIDTH 12 0
BBX 9 9 1 -1
BITMAP
7F00
8080
9080
9080
AA80
8480
8480
8080
7F00
ENDCHAR
STARTCHAR char57892
ENCODING 57892
SWIDTH 1152 0
DWIDTH 12 0
BBX 9 9 1 -1
BITMAP
7F00
EF80
EF80
EF80
9480
FB80
FB80
FB80
7F00
ENDCHAR
STARTCHAR char57893
ENCODING 57893
SWIDTH 1152 0
DWIDTH 12 0
BBX 9 9 1 -1
BITMAP
4100
FF80
FF80
8080
AA80
8080
AA80
8080
FF80
ENDCHAR
STARTCHAR char57894
ENCODING 57894
SWIDTH 1152 0
DWIDTH 12 0
BBX 9 9 1 -1
BITMAP
4100
FF80
FF80
8080
8080
8080
8080
8080
FF80
ENDCHAR
STARTCHAR char57895
ENCODING 57895
SWIDTH 1152 0
DWIDTH 12 0
BBX 12 9 0 -1
BITMAP
4100
FFB0
FFB0
80B0
80B0
80B0
8080
80B0
FFB0
ENDCHAR
STARTCHAR char57896
ENCODING 57896
SWIDTH 1152 0
DWIDTH 12 0
BBX 9 7 1 0
BITMAP
FF80
C180
A280
9480
AA80
C180
FF80
ENDCHAR
STARTCHAR char57897
ENCODING 57897
SWIDTH 1152 0
DWIDTH 12 0
BBX 9 7 1 0
BITMAP
FF80
BE80
DD80
EB80
D580
BE80
FF80
ENDCHAR
STARTCHAR art
ENCODING 57898
SWIDTH 1152 0
DWIDTH 12 0
BBX 9 9 1 -1
BITMAP
0100
0380
0700
0E00
1C00
3800
7000
6000
8000
ENDCHAR
STARTCHAR w_cloud
ENCODING 57899
SWIDTH 1152 0
DWIDTH 12 0
BBX 7 5 2 2
BITMAP
38
7C
FE
FE
6C
ENDCHAR
STARTCHAR w_lightning
ENCODING 57900
SWIDTH 1152 0
DWIDTH 12 0
BBX 7 8 2 0
BITMAP
38
7C
FE
FE
6C
10
30
20
ENDCHAR
STARTCHAR w_rain
ENCODING 57901
SWIDTH 1152 0
DWIDTH 12 0
BBX 7 8 2 0
BITMAP
38
7C
FE
FE
6C
00
54
A8
ENDCHAR
STARTCHAR char57902
ENCODING 57902
SWIDTH 1152 0
DWIDTH 12 0
BBX 7 9 2 -1
BITMAP
38
7C
FE
FE
6C
00
90
28
12
ENDCHAR
STARTCHAR w_hail
ENCODING 57903
SWIDTH 1152 0
DWIDTH 12 0
BBX 7 9 2 -1
BITMAP
38
7C
FE
FE
6C
10
44
10
44
ENDCHAR
STARTCHAR w_morerainidunno
ENCODING 57904
SWIDTH 1152 0
DWIDTH 12 0
BBX 7 8 2 -1
BITMAP
38
7C
FE
FE
6C
00
44
10
ENDCHAR
STARTCHAR char57905
ENCODING 57905
SWIDTH 1152 0
DWIDTH 12 0
BBX 8 7 2 0
BITMAP
0A
2C
73
E2
F3
FC
5A
ENDCHAR
STARTCHAR w_partlymoon
ENCODING 57906
SWIDTH 1152 0
DWIDTH 12 0
BBX 8 8 2 0
BITMAP
08
10
10
59
EE
F0
FC
58
ENDCHAR
STARTCHAR w_moon
ENCODING 57907
SWIDTH 1152 0
DWIDTH 12 0
BBX 5 5 3 1
BITMAP
40
80
80
C8
70
ENDCHAR
STARTCHAR w_sun
ENCODING 57908
SWIDTH 1152 0
DWIDTH 12 0
BBX 7 7 2 0
BITMAP
92
7C
44
44
44
7C
92
ENDCHAR
STARTCHAR w_wind
ENCODING 57909
SWIDTH 1152 0
DWIDTH 12 0
BBX 8 7 2 0
BITMAP
18
F8
03
FF
00
FC
0C
ENDCHAR
STARTCHAR char57910
ENCODING 57910
SWIDTH 1152 0
DWIDTH 12 0
BBX 10 7 1 0
BITMAP
FF80
8080
80C0
80C0
80C0
8080
FF80
ENDCHAR
STARTCHAR char57911
ENCODING 57911
SWIDTH 1152 0
DWIDTH 12 0
BBX 10 7 1 0
BITMAP
FF80
8080
B8C0
B8C0
B8C0
8080
FF80
ENDCHAR
STARTCHAR char57912
ENCODING 57912
SWIDTH 1152 0
DWIDTH 12 0
BBX 10 7 1 0
BITMAP
FF80
8080
BEC0
BEC0
BEC0
8080
FF80
ENDCHAR
STARTCHAR char57913
ENCODING 57913
SWIDTH 1152 0
DWIDTH 12 0
BBX 10 7 1 0
BITMAP
FF80
F380
E0C0
83C0
E0C0
F380
FF80
ENDCHAR
STARTCHAR char57914
ENCODING 57914
SWIDTH 1152 0
DWIDTH 12 0
BBX 10 7 1 0
BITMAP
FF80
F780
E6C0
C1C0
B3C0
F780
FF80
ENDCHAR
STARTCHAR char57915
ENCODING 57915
SWIDTH 1152 0
DWIDTH 12 0
BBX 10 7 1 0
BITMAP
7FC0
4040
C040
C040
C040
4040
7FC0
ENDCHAR
STARTCHAR char57916
ENCODING 57916
SWIDTH 1152 0
DWIDTH 12 0
BBX 10 7 1 0
BITMAP
7FC0
4040
C740
C740
C740
4040
7FC0
ENDCHAR
STARTCHAR char57917
ENCODING 57917
SWIDTH 1152 0
DWIDTH 12 0
BBX 10 7 1 0
BITMAP
7FC0
4040
DF40
DF40
DF40
4040
7FC0
ENDCHAR
STARTCHAR char57918
ENCODING 57918
SWIDTH 1152 0
DWIDTH 12 0
BBX 10 7 1 0
BITMAP
7FC0
73C0
C1C0
F040
C1C0
73C0
7FC0
ENDCHAR
STARTCHAR char57919
ENCODING 57919
SWIDTH 1152 0
DWIDTH 12 0
BBX 10 7 1 0
BITMAP
7FC0
7BC0
D9C0
E0C0
F340
7BC0
7FC0
ENDCHAR
STARTCHAR char57920
ENCODING 57920
SWIDTH 1152 0
DWIDTH 12 0
BBX 12 5 0 0
BITMAP
1000
1000
F5F0
9550
FF50
ENDCHAR
STARTCHAR char57921
ENCODING 57921
SWIDTH 1152 0
DWIDTH 12 0
BBX 12 7 0 0
BITMAP
1000
1000
1000
F5F0
9550
9550
FF50
ENDCHAR
STARTCHAR char57922
ENCODING 57922
SWIDTH 1152 0
DWIDTH 12 0
BBX 12 7 0 0
BITMAP
FFE0
8030
8010
8010
8010
8030
FFE0
ENDCHAR
STARTCHAR char57923
ENCODING 57923
SWIDTH 1152 0
DWIDTH 12 0
BBX 12 7 0 0
BITMAP
FFE0
8030
C010
C010
C010
8030
FFE0
ENDCHAR
STARTCHAR char57924
ENCODING 57924
SWIDTH 1152 0
DWIDTH 12 0
BBX 12 7 0 0
BITMAP
FFE0
8030
E010
E010
E010
8030
FFE0
ENDCHAR
STARTCHAR char57925
ENCODING 57925
SWIDTH 1152 0
DWIDTH 12 0
BBX 12 7 0 0
BITMAP
FFE0
8030
F010
F010
F010
8030
FFE0
ENDCHAR
STARTCHAR char57926
ENCODING 57926
SWIDTH 1152 0
DWIDTH 12 0
BBX 12 7 0 0
BITMAP
FFE0
8030
F810
F810
F810
8030
FFE0
ENDCHAR
STARTCHAR char57927
ENCODING 57927
SWIDTH 1152 0
DWIDTH 12 0
BBX 12 7 0 0
BITMAP
FFE0
8030
FC10
FC10
FC10
8030
FFE0
ENDCHAR
STARTCHAR char57928
ENCODING 57928
SWIDTH 1152 0
DWIDTH 12 0
BBX 12 7 0 0
BITMAP
FFE0
8030
FE10
FE10
FE10
8030
FFE0
ENDCHAR
STARTCHAR char57929
ENCODING 57929
SWIDTH 1152 0
DWIDTH 12 0
BBX 12 7 0 0
BITMAP
FFE0
8030
FF10
FF10
FF10
8030
FFE0
ENDCHAR
STARTCHAR char57930
ENCODING 57930
SWIDTH 1152 0
DWIDTH 12 0
BBX 12 7 0 0
BITMAP
FFE0
8030
FF90
FF90
FF90
8030
FFE0
ENDCHAR
STARTCHAR char57931
ENCODING 57931
SWIDTH 1152 0
DWIDTH 12 0
BBX 12 7 0 0
BITMAP
FFE0
8030
FFD0
FFD0
FFD0
8030
FFE0
ENDCHAR
STARTCHAR char57932
ENCODING 57932
SWIDTH 1152 0
DWIDTH 12 0
BBX 12 7 0 0
BITMAP
FFE0
C030
C010
C010
C010
C030
FFE0
ENDCHAR
STARTCHAR char57933
ENCODING 57933
SWIDTH 1152 0
DWIDTH 12 0
BBX 12 7 0 0
BITMAP
FFE0
E030
E010
E010
E010
E030
FFE0
ENDCHAR
STARTCHAR char57934
ENCODING 57934
SWIDTH 1152 0
DWIDTH 12 0
BBX 12 7 0 0
BITMAP
FFE0
F030
F010
F010
F010
F030
FFE0
ENDCHAR
STARTCHAR char57935
ENCODING 57935
SWIDTH 1152 0
DWIDTH 12 0
BBX 12 7 0 0
BITMAP
FFE0
F830
F810
F810
F810
F830
FFE0
ENDCHAR
STARTCHAR char57936
ENCODING 57936
SWIDTH 1152 0
DWIDTH 12 0
BBX 12 7 0 0
BITMAP
FFE0
FC30
FC10
FC10
FC10
FC30
FFE0
ENDCHAR
STARTCHAR char57937
ENCODING 57937
SWIDTH 1152 0
DWIDTH 12 0
BBX 12 7 0 0
BITMAP
FFE0
FE30
FE10
FE10
FE10
FE30
FFE0
ENDCHAR
STARTCHAR char57938
ENCODING 57938
SWIDTH 1152 0
DWIDTH 12 0
BBX 12 7 0 0
BITMAP
FFE0
FF30
FF10
FF10
FF10
FF30
FFE0
ENDCHAR
STARTCHAR char57939
ENCODING 57939
SWIDTH 1152 0
DWIDTH 12 0
BBX 12 7 0 0
BITMAP
FFE0
FFB0
FF90
FF90
FF90
FFB0
FFE0
ENDCHAR
STARTCHAR char57940
ENCODING 57940
SWIDTH 1152 0
DWIDTH 12 0
BBX 12 7 0 0
BITMAP
FFE0
FFF0
FFD0
FFD0
FFD0
FFF0
FFE0
ENDCHAR
STARTCHAR layout_full
ENCODING 57941
SWIDTH 1152 0
DWIDTH 12 0
BBX 11 7 0 0
BITMAP
FFE0
8020
8020
8020
8020
8020
FFE0
ENDCHAR
STARTCHAR layout_mirror
ENCODING 57942
SWIDTH 1152 0
DWIDTH 12 0
BBX 11 7 0 0
BITMAP
FFE0
8020
8020
FFE0
8420
8420
FFE0
ENDCHAR
STARTCHAR layout_tall
ENCODING 57943
SWIDTH 1152 0
DWIDTH 12 0
BBX 11 7 0 0
BITMAP
FFE0
8420
8420
87E0
8420
8420
FFE0
ENDCHAR
STARTCHAR wifi_1
ENCODING 57944
SWIDTH 1152 0
DWIDTH 12 0
BBX 1 1 1 1
BITMAP
80
ENDCHAR
STARTCHAR wifi_2
ENCODING 57945
SWIDTH 1152 0
DWIDTH 12 0
BBX 3 2 1 1
BITMAP
20
A0
ENDCHAR
STARTCHAR wifi_3
ENCODING 57946
SWIDTH 1152 0
DWIDTH 12 0
BBX 5 3 1 1
BITMAP
08
28
A8
ENDCHAR
STARTCHAR wifi_4
ENCODING 57947
SWIDTH 1152 0
DWIDTH 12 0
BBX 7 4 1 1
BITMAP
02
0A
2A
AA
ENDCHAR
STARTCHAR wifi_5
ENCODING 57948
SWIDTH 1152 0
DWIDTH 12 0
BBX 9 5 1 1
BITMAP
0080
0280
0A80
2A80
AA80
ENDCHAR
STARTCHAR wifi_alt_1
ENCODING 57949
SWIDTH 1152 0
DWIDTH 12 0
BBX 9 1 1 1
BITMAP
AA80
ENDCHAR
STARTCHAR wifi_alt_2
ENCODING 57950
SWIDTH 1152 0
DWIDTH 12 0
BBX 9 2 1 1
BITMAP
2000
AA80
ENDCHAR
STARTCHAR wifi_alt_3
ENCODING 57951
SWIDTH 1152 0
DWIDTH 12 0
BBX 9 3 1 1
BITMAP
0800
2800
AA80
ENDCHAR
STARTCHAR wifi_alt_4
ENCODING 57952
SWIDTH 1152 0
DWIDTH 12 0
BBX 9 4 1 1
BITMAP
0200
0A00
2A00
AA80
ENDCHAR
STARTCHAR wifi_alt_5
ENCODING 57953
SWIDTH 1152 0
DWIDTH 12 0
BBX 9 5 1 1
BITMAP
0080
0280
0A80
2A80
AA80
ENDCHAR
STARTCHAR calendar_large
ENCODING 57954
SWIDTH 1152 0
DWIDTH 12 0
BBX 12 9 0 -1
BITMAP
2A80
FFF0
AA90
8010
AAB0
8010
AAB0
8010
FFF0
ENDCHAR
STARTCHAR film_small
ENCODING 57955
SWIDTH 1152 0
DWIDTH 12 0
BBX 10 7 1 0
BITMAP
FFC0
A140
E1C0
BF40
E1C0
A140
FFC0
ENDCHAR
STARTCHAR folder_small
ENCODING 57956
SWIDTH 1152 0
DWIDTH 12 0
BBX 8 6 2 0
BITMAP
E0
FF
FF
FF
FF
FF
ENDCHAR
STARTCHAR view_calendar_month
ENCODING 57957
SWIDTH 1152 0
DWIDTH 12 0
BBX 9 8 1 0
BITMAP
FF80
FF80
AA80
FF80
AA80
FF80
AA80
FF80
ENDCHAR
STARTCHAR calendar_small
ENCODING 57958
SWIDTH 1152 0
DWIDTH 12 0
BBX 10 9 1 -1
BITMAP
5500
FFC0
D540
8040
AAC0
8040
AAC0
8040
FFC0
ENDCHAR
STARTCHAR char57959
ENCODING 57959
SWIDTH 1152 0
DWIDTH 12 0
BBX 10 8 1 0
BITMAP
FFC0
FFC0
8040
AAC0
8040
AAC0
8040
FFC0
ENDCHAR
STARTCHAR editor_large
ENCODING 57960
SWIDTH 1152 0
DWIDTH 12 0
BBX 10 8 1 0
BITMAP
7F80
FFC0
8040
BF40
8040
BF40
8040
FFC0
ENDCHAR
STARTCHAR char57961
ENCODING 57961
SWIDTH 1152 0
DWIDTH 12 0
BBX 10 8 1 0
BITMAP
FFC0
FFC0
8040
AF40
8040
AF40
8040
FFC0
ENDCHAR
STARTCHAR char57962
ENCODING 57962
SWIDTH 1152 0
DWIDTH 12 0
BBX 9 9 1 -1
BITMAP
4100
BE80
FF80
AA80
FF80
AA80
FF80
AA80
FF80
ENDCHAR
STARTCHAR layout_deck
ENCODING 57963
SWIDTH 1152 0
DWIDTH 12 0
BBX 8 8 2 0
BITMAP
F7
F7
F7
F7
F7
F7
F7
F7
ENDCHAR
STARTCHAR char57964
ENCODING 57964
SWIDTH 1152 0
DWIDTH 12 0
BBX 9 9 1 -1
BITMAP
FF80
FF80
8880
8880
8880
8880
8880
8880
FF80
ENDCHAR
STARTCHAR web_invert
ENCODING 57965
SWIDTH 1152 0
DWIDTH 12 0
BBX 8 8 2 0
BITMAP
3C
66
EF
AF
A5
E5
72
3C
ENDCHAR
STARTCHAR char57966
ENCODING 57966
SWIDTH 1152 0
DWIDTH 12 0
BBX 5 8 3 0
BITMAP
70
E8
98
88
50
70
70
20
ENDCHAR
STARTCHAR keyboard_layout
ENCODING 57967
SWIDTH 1152 0
DWIDTH 12 0
BBX 12 8 0 0
BITMAP
FFF0
AA10
8050
EAD0
8010
AF50
8010
FFF0
ENDCHAR
STARTCHAR Quarter
ENCODING 57968
SWIDTH 1152 0
DWIDTH 12 0
BBX 3 7 4 0
BITMAP
20
20
20
20
20
E0
E0
ENDCHAR
STARTCHAR Eighth
ENCODING 57969
SWIDTH 1152 0
DWIDTH 12 0
BBX 5 7 3 0
BITMAP
30
28
28
20
20
E0
E0
ENDCHAR
STARTCHAR Beamed
ENCODING 57970
SWIDTH 1152 0
DWIDTH 12 0
BBX 5 7 3 0
BITMAP
78
48
48
48
48
D8
D8
ENDCHAR
STARTCHAR Beamed
ENCODING 57971
SWIDTH 1152 0
DWIDTH 12 0
BBX 5 7 3 0
BITMAP
78
78
48
78
48
D8
D8
ENDCHAR
STARTCHAR Music
ENCODING 57972
SWIDTH 1152 0
DWIDTH 12 0
BBX 3 7 4 0
BITMAP
80
80
80
80
E0
A0
C0
ENDCHAR
STARTCHAR Music
ENCODING 57973
SWIDTH 1152 0
DWIDTH 12 0
BBX 4 8 4 0
BITMAP
80
90
B0
D0
B0
D0
90
10
ENDCHAR
STARTCHAR Music
ENCODING 57974
SWIDTH 1152 0
DWIDTH 12 0
BBX 5 8 3 0
BITMAP
10
58
70
D0
58
70
D0
40
ENDCHAR
STARTCHAR char57975
ENCODING 57975
SWIDTH 1152 0
DWIDTH 12 0
BBX 8 9 2 -1
BITMAP
18
3C
7E
7E
7E
7E
FF
00
18
ENDCHAR
STARTCHAR char57975
ENCODING 57976
SWIDTH 1152 0
DWIDTH 12 0
BBX 8 9 2 -1
BITMAP
98
7C
3E
5E
6E
76
FB
01
18
ENDCHAR
STARTCHAR char57977
ENCODING 57977
SWIDTH 1152 0
DWIDTH 12 0
BBX 10 7 1 0
BITMAP
1FC0
3FC0
7AC0
FDC0
7AC0
3FC0
1FC0
ENDCHAR
STARTCHAR char57978
ENCODING 57978
SWIDTH 1152 0
DWIDTH 12 0
BBX 8 8 2 0
BITMAP
FC
AF
AD
AD
AD
AE
FC
FC
ENDCHAR
STARTCHAR char57979
ENCODING 57979
SWIDTH 1152 0
DWIDTH 12 0
BBX 6 6 3 0
BITMAP
C0
FC
FC
FC
FC
FC
ENDCHAR
STARTCHAR char57979
ENCODING 57980
SWIDTH 1152 0
DWIDTH 12 0
BBX 7 7 2 0
BITMAP
C0
FE
FE
FE
FE
FE
FE
ENDCHAR
STARTCHAR char57981
ENCODING 57981
SWIDTH 1152 0
DWIDTH 12 0
BBX 10 8 1 0
BITMAP
3F00
2100
FFC0
FFC0
8040
F3C0
FFC0
FFC0
ENDCHAR
STARTCHAR char57982
ENCODING 57982
SWIDTH 1152 0
DWIDTH 12 0
BBX 8 8 2 0
BITMAP
80
88
8A
AA
AA
AA
80
FF
ENDCHAR
STARTCHAR char57982
ENCODING 57983
SWIDTH 1152 0
DWIDTH 12 0
BBX 8 8 2 0
BITMAP
88
8A
AE
BF
BF
BF
80
FF
ENDCHAR
STARTCHAR char57984
ENCODING 57984
SWIDTH 1152 0
DWIDTH 12 0
BBX 10 8 1 0
BITMAP
FFC0
8040
8040
8040
8040
8040
0700
FFC0
ENDCHAR
STARTCHAR char57985
ENCODING 57985
SWIDTH 1152 0
DWIDTH 12 0
BBX 7 7 2 0
BITMAP
FE
FE
FA
F6
AE
DE
FE
ENDCHAR
STARTCHAR char57985
ENCODING 57986
SWIDTH 1152 0
DWIDTH 12 0
BBX 7 7 2 0
BITMAP
FE
FE
D6
EE
D6
FE
FE
ENDCHAR
STARTCHAR char57987
ENCODING 57987
SWIDTH 1152 0
DWIDTH 12 0
BBX 7 7 2 0
BITMAP
3E
BE
BE
BE
BE
80
FC
ENDCHAR
STARTCHAR char57988
ENCODING 57988
SWIDTH 1152 0
DWIDTH 12 0
BBX 7 7 2 0
BITMAP
F8
FA
FA
FA
FA
02
7E
ENDCHAR
STARTCHAR char57989
ENCODING 57989
SWIDTH 1152 0
DWIDTH 12 0
BBX 7 7 2 0
BITMAP
FC
80
BE
BE
BE
BE
3E
ENDCHAR
STARTCHAR char57990
ENCODING 57990
SWIDTH 1152 0
DWIDTH 12 0
BBX 7 7 2 0
BITMAP
7E
02
FA
FA
FA
FA
F8
ENDCHAR
STARTCHAR char57991
ENCODING 57991
SWIDTH 1152 0
DWIDTH 12 0
BBX 10 9 1 -1
BITMAP
7F00
7FC0
7F40
7F40
7F80
7F00
3E00
0000
FF80
ENDCHAR
STARTCHAR char57992
ENCODING 57992
SWIDTH 1152 0
DWIDTH 12 0
BBX 8 8 2 0
BITMAP
99
7E
66
DB
DB
66
7E
99
ENDCHAR
STARTCHAR char57993
ENCODING 57993
SWIDTH 1152 0
DWIDTH 12 0
BBX 6 6 3 0
BITMAP
B4
78
CC
CC
78
B4
ENDCHAR
STARTCHAR char57994
ENCODING 57994
SWIDTH 1152 0
DWIDTH 12 0
BBX 9 9 1 -1
BITMAP
3E00
7F00
FD80
F380
EB80
E780
DF80
7F00
3E00
ENDCHAR
STARTCHAR char57995
ENCODING 57995
SWIDTH 1152 0
DWIDTH 12 0
BBX 8 8 2 0
BITMAP
3C
7E
E7
DF
DF
E7
7E
3C
ENDCHAR
STARTCHAR char57996
ENCODING 57996
SWIDTH 1152 0
DWIDTH 12 0
BBX 8 8 2 0
BITMAP
7E
FF
FF
FF
FF
7E
0C
06
ENDCHAR
STARTCHAR char57996
ENCODING 57997
SWIDTH 1152 0
DWIDTH 12 0
BBX 8 8 2 0
BITMAP
7E
FF
FF
FF
FF
7E
30
60
ENDCHAR
STARTCHAR char57996
ENCODING 57998
SWIDTH 1152 0
DWIDTH 12 0
BBX 9 10 2 -1
BITMAP
8000
4000
3E00
DF00
EF00
F700
FB00
7D00
3080
6000
ENDCHAR
STARTCHAR char57999
ENCODING 57999
SWIDTH 1152 0
DWIDTH 12 0
BBX 10 10 1 -1
BITMAP
0100
0180
FFC0
0180
0100
2000
6000
FFC0
6000
2000
ENDCHAR
STARTCHAR char57999
ENCODING 58000
SWIDTH 1152 0
DWIDTH 12 0
BBX 10 10 1 -1
BITMAP
0100
0180
FFC0
0180
0100
2000
6000
FFC0
6000
2000
ENDCHAR
STARTCHAR char57999
ENCODING 58001
SWIDTH 1152 0
DWIDTH 12 0
BBX 9 10 1 -1
BITMAP
0200
0300
FF80
0300
0200
2000
6000
FF80
6000
2000
ENDCHAR
STARTCHAR char57999
ENCODING 58002
SWIDTH 1152 0
DWIDTH 12 0
BBX 10 7 1 0
BITMAP
0100
0180
FFC0
0000
FFC0
6000
2000
ENDCHAR
STARTCHAR char57999
ENCODING 58003
SWIDTH 1152 0
DWIDTH 12 0
BBX 10 8 1 0
BITMAP
0100
0180
FFC0
0000
0000
FFC0
6000
2000
ENDCHAR
STARTCHAR char57999
ENCODING 58004
SWIDTH 1152 0
DWIDTH 12 0
BBX 8 8 2 0
BITMAP
04
06
FF
00
00
FF
60
20
ENDCHAR
STARTCHAR char58005
ENCODING 58005
SWIDTH 1152 0
DWIDTH 12 0
BBX 10 8 1 0
BITMAP
2100
2380
27C0
2100
2100
F900
7100
2100
ENDCHAR
STARTCHAR char58005
ENCODING 58006
SWIDTH 1152 0
DWIDTH 12 0
BBX 12 8 0 0
BITMAP
2040
20E0
21F0
2040
2040
F840
7040
2040
ENDCHAR
STARTCHAR char58005
ENCODING 58007
SWIDTH 1152 0
DWIDTH 12 0
BBX 8 8 2 0
BITMAP
24
26
27
24
24
E4
64
24
ENDCHAR
STARTCHAR char58005
ENCODING 58008
SWIDTH 1152 0
DWIDTH 12 0
BBX 10 8 1 0
BITMAP
2100
2180
21C0
2100
2100
E100
6100
2100
ENDCHAR
STARTCHAR char58009
ENCODING 58009
SWIDTH 1152 0
DWIDTH 12 0
BBX 12 7 0 0
BITMAP
0070
0430
0850
1080
A100
C200
E000
ENDCHAR
STARTCHAR char58009
ENCODING 58010
SWIDTH 1152 0
DWIDTH 12 0
BBX 12 9 0 -1
BITMAP
0200
0400
08F0
9070
E070
E090
F100
0200
0400
ENDCHAR
STARTCHAR char58009
ENCODING 58011
SWIDTH 1152 0
DWIDTH 12 0
BBX 12 7 0 0
BITMAP
0070
0430
0850
1080
A100
C200
E000
ENDCHAR
STARTCHAR char58009
ENCODING 58012
SWIDTH 1152 0
DWIDTH 12 0
BBX 12 7 0 0
BITMAP
0070
0030
0850
1080
A100
C000
E000
ENDCHAR
STARTCHAR char58013
ENCODING 58013
SWIDTH 1152 0
DWIDTH 12 0
BBX 8 7 2 0
BITMAP
04
06
87
7C
7C
44
44
ENDCHAR
STARTCHAR char58014
ENCODING 58014
SWIDTH 1152 0
DWIDTH 12 0
BBX 9 8 1 0
BITMAP
F300
8700
8E00
9C80
A880
B080
8080
FF80
ENDCHAR
STARTCHAR char58014
ENCODING 58015
SWIDTH 1152 0
DWIDTH 12 0
BBX 9 9 1 -1
BITMAP
F980
8380
8700
8E00
9C80
A880
B080
8080
FF80
ENDCHAR
STARTCHAR char58016
ENCODING 58016
SWIDTH 1152 0
DWIDTH 12 0
BBX 7 7 2 0
BITMAP
06
0E
1C
38
70
A0
C0
ENDCHAR
STARTCHAR char58017
ENCODING 58017
SWIDTH 1152 0
DWIDTH 12 0
BBX 12 9 0 -1
BITMAP
E000
3FF0
1FE0
1FE0
0FC0
0FC0
0000
0FC0
0840
ENDCHAR
STARTCHAR char58018
ENCODING 58018
SWIDTH 1152 0
DWIDTH 12 0
BBX 7 9 2 -1
BITMAP
92
44
38
38
38
38
38
28
28
ENDCHAR
STARTCHAR char58019
ENCODING 58019
SWIDTH 1152 0
DWIDTH 12 0
BBX 11 10 1 -1
BITMAP
0780
FC80
AF80
FC80
AF80
FCE0
AFA0
FFE0
AFA0
FFE0
ENDCHAR
STARTCHAR char58020
ENCODING 58020
SWIDTH 1152 0
DWIDTH 12 0
BBX 7 11 3 -1
BITMAP
10
28
FE
82
FE
FE
FE
FE
FE
FE
FE
ENDCHAR
STARTCHAR char58020
ENCODING 58021
SWIDTH 1152 0
DWIDTH 12 0
BBX 7 11 3 -1
BITMAP
10
28
FE
82
FE
FA
F6
AE
DE
FE
FE
ENDCHAR
STARTCHAR char57998
ENCODING 58022
SWIDTH 1152 0
DWIDTH 12 0
BBX 7 7 2 0
BITMAP
38
38
7C
38
10
00
FE
ENDCHAR
STARTCHAR char57998
ENCODING 58023
SWIDTH 1152 0
DWIDTH 12 0
BBX 8 7 2 0
BITMAP
3C
3C
7E
3C
18
00
FF
ENDCHAR
STARTCHAR char58024
ENCODING 58024
SWIDTH 1152 0
DWIDTH 12 0
BBX 9 11 1 -2
BITMAP
1400
3600
7500
B480
D580
A380
9780
9780
5700
3600
1400
ENDCHAR
STARTCHAR char58025
ENCODING 58025
SWIDTH 1152 0
DWIDTH 12 0
BBX 12 7 0 0
BITMAP
F070
93C0
FF00
0C00
FF00
93C0
F070
ENDCHAR
STARTCHAR char58025
ENCODING 58026
SWIDTH 1152 0
DWIDTH 12 0
BBX 11 7 0 0
BITMAP
E1E0
A780
FE00
1800
FE00
A780
E1E0
ENDCHAR
STARTCHAR char58023
ENCODING 58027
SWIDTH 1152 0
DWIDTH 12 0
BBX 8 10 2 -1
BITMAP
3A
3B
B8
BF
BF
BF
BF
BF
80
FE
ENDCHAR
STARTCHAR char58028
ENCODING 58028
SWIDTH 1152 0
DWIDTH 12 0
BBX 2 11 5 -2
BITMAP
C0
C0
00
C0
C0
00
C0
C0
00
C0
C0
ENDCHAR
STARTCHAR char58027
ENCODING 58029
SWIDTH 1152 0
DWIDTH 12 0
BBX 11 2 0 2
BITMAP
DB60
DB60
ENDCHAR
STARTCHAR char58030
ENCODING 58030
SWIDTH 1152 0
DWIDTH 12 0
BBX 12 7 0 0
BITMAP
0F00
1F80
79E0
F0F0
79E0
1F80
0F00
ENDCHAR
STARTCHAR char58030
ENCODING 58031
SWIDTH 1152 0
DWIDTH 12 0
BBX 12 8 0 0
BITMAP
1000
0F00
1780
7BE0
F1F0
78E0
1F40
0F20
ENDCHAR
STARTCHAR char58032
ENCODING 58032
SWIDTH 1152 0
DWIDTH 12 0
BBX 10 9 1 -1
BITMAP
0200
0700
0F80
1FC0
2F80
4700
2200
1400
FFC0
ENDCHAR
STARTCHAR char58033
ENCODING 58033
SWIDTH 1152 0
DWIDTH 12 0
BBX 10 10 1 -1
BITMAP
E1C0
C0C0
A140
1200
0C00
0C00
1200
A140
C0C0
E1C0
ENDCHAR
STARTCHAR char58033
ENCODING 58034
SWIDTH 1152 0
DWIDTH 12 0
BBX 8 8 2 0
BITMAP
E7
C3
A5
18
18
A5
C3
E7
ENDCHAR
STARTCHAR char58035
ENCODING 58035
SWIDTH 1152 0
DWIDTH 12 0
BBX 9 10 2 -1
BITMAP
0780
F180
8280
8480
8800
9100
8100
8100
8100
FF00
ENDCHAR
STARTCHAR char58036
ENCODING 58036
SWIDTH 1152 0
DWIDTH 12 0
BBX 11 10 0 -1
BITMAP
0400
0E00
0E00
1B00
1B00
3B80
3B80
7FC0
7BC0
FFE0
ENDCHAR
STARTCHAR U+E02D
ENCODING 58037
SWIDTH 1152 0
DWIDTH 12 0
BBX 8 8 2 0
BITMAP
F8
04
F2
09
E5
15
D5
D5
ENDCHAR
STARTCHAR U+E02D
ENCODING 58038
SWIDTH 1152 0
DWIDTH 12 0
BBX 8 8 2 0
BITMAP
1F
20
4F
90
A7
A8
AB
AB
ENDCHAR
STARTCHAR char57807
ENCODING 58039
SWIDTH 1152 0
DWIDTH 12 0
BBX 8 10 2 -1
BITMAP
FC
8A
89
8F
81
81
81
81
81
FF
ENDCHAR
STARTCHAR char57807
ENCODING 58040
SWIDTH 1152 0
DWIDTH 12 0
BBX 8 10 2 -1
BITMAP
F8
94
92
91
9F
81
81
81
81
FF
ENDCHAR
STARTCHAR char57807
ENCODING 58041
SWIDTH 1152 0
DWIDTH 12 0
BBX 8 10 2 -1
BITMAP
F4
F6
F7
F0
FF
FF
FF
FF
FF
FF
ENDCHAR
STARTCHAR char57807
ENCODING 58042
SWIDTH 1152 0
DWIDTH 12 0
BBX 8 10 2 -1
BITMAP
E8
EC
EE
EF
E0
FF
FF
FF
FF
FF
ENDCHAR
STARTCHAR char58043
ENCODING 58043
SWIDTH 1152 0
DWIDTH 12 0
BBX 6 10 3 -1
BITMAP
E0
FC
FC
FC
FC
9C
80
80
80
80
ENDCHAR
STARTCHAR char58044
ENCODING 58044
SWIDTH 1152 0
DWIDTH 12 0
BBX 7 9 2 -1
BITMAP
38
44
92
AA
8A
52
24
08
30
ENDCHAR
STARTCHAR char58045
ENCODING 58045
SWIDTH 1152 0
DWIDTH 12 0
BBX 9 9 1 -1
BITMAP
FF80
7F00
3E00
1C00
0800
0800
0800
0800
3E00
ENDCHAR
STARTCHAR char58045
ENCODING 58046
SWIDTH 1152 0
DWIDTH 12 0
BBX 9 9 2 -1
BITMAP
0300
0480
FE80
7D00
3800
1000
1000
1000
7C00
ENDCHAR
STARTCHAR char58047
ENCODING 58047
SWIDTH 1152 0
DWIDTH 12 0
BBX 10 11 1 -2
BITMAP
3800
FC00
0F00
0FC0
1B80
1900
3000
3000
6000
6000
C000
ENDCHAR
STARTCHAR char58048
ENCODING 58048
SWIDTH 1152 0
DWIDTH 12 0
BBX 10 6 1 0
BITMAP
1800
BFC0
BE00
BE00
BE00
BC00
ENDCHAR
STARTCHAR char58049
ENCODING 58049
SWIDTH 1152 0
DWIDTH 12 0
BBX 9 9 1 -1
BITMAP
3E00
4100
8080
8080
B680
B680
7700
3600
3600
ENDCHAR
STARTCHAR char58050
ENCODING 58050
SWIDTH 1152 0
DWIDTH 12 0
BBX 10 10 1 -1
BITMAP
7000
F800
FC00
FE00
7F00
3F80
1F00
0F00
0480
0040
ENDCHAR
STARTCHAR char58051
ENCODING 58051
SWIDTH 1152 0
DWIDTH 12 0
BBX 11 11 0 -2
BITMAP
8000
6000
7800
3E00
3F80
1FE0
1FC0
0F80
0FC0
06E0
0460
ENDCHAR
STARTCHAR char58052
ENCODING 58052
SWIDTH 1152 0
DWIDTH 12 0
BBX 9 10 2 -1
BITMAP
FE00
FF80
FE80
0080
0F00
1800
1800
1800
1800
1800
ENDCHAR
STARTCHAR char58053
ENCODING 58053
SWIDTH 1152 0
DWIDTH 12 0
BBX 12 7 0 0
BITMAP
2FC0
7040
F840
2040
21F0
20E0
3F40
ENDCHAR
STARTCHAR char58053
ENCODING 58054
SWIDTH 1152 0
DWIDTH 12 0
BBX 12 9 0 -1
BITMAP
0FC0
2040
7040
F840
2040
21F0
20E0
2040
3F00
ENDCHAR
STARTCHAR char58053
ENCODING 58055
SWIDTH 1152 0
DWIDTH 12 0
BBX 12 9 0 -1
BITMAP
07C0
2040
7040
F840
2040
21F0
20E0
2040
3E00
ENDCHAR
STARTCHAR char58053
ENCODING 58056
SWIDTH 1152 0
DWIDTH 12 0
BBX 12 9 0 -1
BITMAP
0780
20C0
7040
F840
2040
21F0
20E0
3040
1E00
ENDCHAR
STARTCHAR char58057
ENCODING 58057
SWIDTH 1152 0
DWIDTH 12 0
BBX 9 9 1 -1
BITMAP
2200
7300
FB80
0300
2200
6000
EF80
6700
2200
ENDCHAR
STARTCHAR char58057
ENCODING 58058
SWIDTH 1152 0
DWIDTH 12 0
BBX 9 9 1 -1
BITMAP
2200
7300
FF80
2300
2200
6200
FF80
6700
2200
ENDCHAR
STARTCHAR char58059
ENCODING 58059
SWIDTH 1152 0
DWIDTH 12 0
BBX 10 10 1 -1
BITMAP
F000
C000
F000
C000
F000
C000
F540
D540
BFC0
7FC0
ENDCHAR
STARTCHAR char58060
ENCODING 58060
SWIDTH 1152 0
DWIDTH 12 0
BBX 11 5 0 1
BITMAP
AAA0
AAA0
FFE0
FFE0
FFE0
ENDCHAR
STARTCHAR char58061
ENCODING 58061
SWIDTH 1152 0
DWIDTH 12 0
BBX 10 11 1 -2
BITMAP
FFC0
FE40
FFC0
0000
FFC0
FE40
FFC0
0000
FFC0
FE40
FFC0
ENDCHAR
STARTCHAR char58062
ENCODING 58062
SWIDTH 1152 0
DWIDTH 12 0
BBX 8 9 2 -1
BITMAP
7F
41
11
F9
FD
F9
11
41
7F
ENDCHAR
STARTCHAR char58063
ENCODING 58063
SWIDTH 1152 0
DWIDTH 12 0
BBX 5 7 3 0
BITMAP
20
70
F8
00
F8
70
20
ENDCHAR
STARTCHAR char58063
ENCODING 58064
SWIDTH 1152 0
DWIDTH 12 0
BBX 5 8 3 0
BITMAP
20
70
F8
00
00
F8
70
20
ENDCHAR
STARTCHAR char58065
ENCODING 58065
SWIDTH 1152 0
DWIDTH 12 0
BBX 12 5 0 1
BITMAP
0080
0140
E230
1400
0800
ENDCHAR
STARTCHAR char58065
ENCODING 58066
SWIDTH 1152 0
DWIDTH 12 0
BBX 12 9 0 -1
BITMAP
0080
0080
0140
0140
E230
1400
1400
0800
0800
ENDCHAR
STARTCHAR char58067
ENCODING 58067
SWIDTH 1152 0
DWIDTH 12 0
BBX 11 11 0 -2
BITMAP
0E00
0E00
0E00
0400
0400
7FC0
4440
4440
EEE0
EEE0
EEE0
ENDCHAR
STARTCHAR char58068
ENCODING 58068
SWIDTH 1152 0
DWIDTH 12 0
BBX 12 9 0 -1
BITMAP
2180
2000
21C0
2000
21C0
2000
F9E0
7000
21F0
ENDCHAR
STARTCHAR char58068
ENCODING 58069
SWIDTH 1152 0
DWIDTH 12 0
BBX 12 9 0 -1
BITMAP
21F0
2000
21E0
2000
21C0
2000
F9C0
7000
2180
ENDCHAR
STARTCHAR char58070
ENCODING 58070
SWIDTH 1152 0
DWIDTH 12 0
BBX 11 10 0 -1
BITMAP
C600
8200
8200
8260
8260
4440
3840
1040
0880
0700
ENDCHAR
STARTCHAR char58071
ENCODING 58071
SWIDTH 1152 0
DWIDTH 12 0
BBX 8 8 2 0
BITMAP
FE
FE
00
7F
7F
00
FE
FE
ENDCHAR
STARTCHAR char58072
ENCODING 58072
SWIDTH 1152 0
DWIDTH 12 0
BBX 12 11 0 -2
BITMAP
0700
0180
2080
70C0
F840
2040
21F0
30E0
1040
1800
0E00
ENDCHAR
STARTCHAR char57981
ENCODING 58073
SWIDTH 1152 0
DWIDTH 12 0
BBX 10 8 1 0
BITMAP
3F00
2100
FFC0
CCC0
0000
CCC0
FFC0
FFC0
ENDCHAR
STARTCHAR char57981
ENCODING 58074
SWIDTH 1152 0
DWIDTH 12 0
BBX 10 9 1 -1
BITMAP
3F00
2100
FFC0
FFC0
CCC0
0000
CCC0
FFC0
FFC0
ENDCHAR
STARTCHAR char58075
ENCODING 58075
SWIDTH 1152 0
DWIDTH 12 0
BBX 12 10 0 -1
BITMAP
0600
1F80
7FE0
FFF0
6660
6660
6660
FFF0
0000
FFF0
ENDCHAR
STARTCHAR char58076
ENCODING 58076
SWIDTH 1152 0
DWIDTH 12 0
BBX 8 10 2 -1
BITMAP
18
24
42
42
FF
FF
FF
FF
FF
FF
ENDCHAR
STARTCHAR char57998
ENCODING 58077
SWIDTH 1152 0
DWIDTH 12 0
BBX 7 7 2 0
BITMAP
FE
00
10
38
7C
38
38
ENDCHAR
STARTCHAR char57998
ENCODING 58078
SWIDTH 1152 0
DWIDTH 12 0
BBX 9 8 1 0
BITMAP
FF80
0000
0800
1C00
3E00
7F00
3E00
3E00
ENDCHAR
STARTCHAR char58079
ENCODING 58079
SWIDTH 1152 0
DWIDTH 12 0
BBX 10 8 1 0
BITMAP
5540
AA80
0000
5540
AA80
0000
5540
AA80
ENDCHAR
STARTCHAR char58080
ENCODING 58080
SWIDTH 1152 0
DWIDTH 12 0
BBX 9 10 1 -1
BITMAP
0800
1C00
3E00
7F00
8080
BE80
BE80
8080
BE80
BE80
ENDCHAR
STARTCHAR char58080
ENCODING 58081
SWIDTH 1152 0
DWIDTH 12 0
BBX 9 10 1 -1
BITMAP
0800
1C00
3E00
7F00
8080
BE80
8080
BE80
8080
BE80
ENDCHAR
STARTCHAR char58082
ENCODING 58082
SWIDTH 1152 0
DWIDTH 12 0
BBX 8 7 2 0
BITMAP
FE
80
FF
FF
FD
FF
FF
ENDCHAR
STARTCHAR char58083
ENCODING 58083
SWIDTH 1152 0
DWIDTH 12 0
BBX 6 10 3 -1
BITMAP
FC
FC
FC
FC
FC
FC
78
30
78
FC
ENDCHAR
STARTCHAR char58083
ENCODING 58084
SWIDTH 1152 0
DWIDTH 12 0
BBX 6 10 3 -1
BITMAP
FC
84
84
FC
FC
FC
78
30
78
FC
ENDCHAR
STARTCHAR char58085
ENCODING 58085
SWIDTH 1152 0
DWIDTH 12 0
BBX 6 9 3 -1
BITMAP
FC
84
48
30
30
30
48
84
FC
ENDCHAR
STARTCHAR char58085
ENCODING 58086
SWIDTH 1152 0
DWIDTH 12 0
BBX 6 9 3 -1
BITMAP
FC
84
48
30
30
30
78
FC
FC
ENDCHAR
STARTCHAR char58085
ENCODING 58087
SWIDTH 1152 0
DWIDTH 12 0
BBX 6 9 3 -1
BITMAP
FC
FC
78
30
30
30
78
FC
FC
ENDCHAR
STARTCHAR U+E015
ENCODING 58088
SWIDTH 1152 0
DWIDTH 12 0
BBX 8 8 2 0
BITMAP
3C
6E
EF
EF
F7
FB
7E
3C
ENDCHAR
STARTCHAR U+E015
ENCODING 58089
SWIDTH 1152 0
DWIDTH 12 0
BBX 10 9 1 -1
BITMAP
4080
9E40
3700
7780
7780
7B80
7D80
3F00
1E00
ENDCHAR
STARTCHAR char58090
ENCODING 58090
SWIDTH 1152 0
DWIDTH 12 0
BBX 10 8 1 0
BITMAP
FFC0
8040
B040
A040
8140
8340
8040
FFC0
ENDCHAR
STARTCHAR char58091
ENCODING 58091
SWIDTH 1152 0
DWIDTH 12 0
BBX 8 7 2 0
BITMAP
FF
81
E7
FF
00
E7
FF
ENDCHAR
STARTCHAR char58092
ENCODING 58092
SWIDTH 1152 0
DWIDTH 12 0
BBX 9 7 1 0
BITMAP
FF80
FF80
DF80
DD80
D580
D580
FF80
ENDCHAR
STARTCHAR char58093
ENCODING 58093
SWIDTH 1152 0
DWIDTH 12 0
BBX 9 9 1 -1
BITMAP
FF80
F780
F780
F780
FF80
F780
FF80
6000
C000
ENDCHAR
STARTCHAR char58093
ENCODING 58094
SWIDTH 1152 0
DWIDTH 12 0
BBX 11 11 0 -2
BITMAP
FFE0
FFE0
FBE0
FBE0
FBE0
FBE0
FFE0
FBE0
FFE0
6000
C000
ENDCHAR
STARTCHAR char58095
ENCODING 58095
SWIDTH 1152 0
DWIDTH 12 0
BBX 10 7 1 0
BITMAP
FFC0
C1C0
FFC0
C7C0
FFC0
C0C0
FFC0
ENDCHAR
STARTCHAR char57826
ENCODING 58096
SWIDTH 1152 0
DWIDTH 12 0
BBX 9 11 2 -2
BITMAP
7F80
0080
FE80
FE80
FE80
FE80
FE80
FE80
EE80
C680
8200
ENDCHAR
STARTCHAR char58097
ENCODING 58097
SWIDTH 1152 0
DWIDTH 12 0
BBX 12 7 0 0
BITMAP
0100
2140
4220
8210
4420
2C40
0800
ENDCHAR
STARTCHAR char58098
ENCODING 58098
SWIDTH 1152 0
DWIDTH 12 0
BBX 9 5 1 1
BITMAP
0280
0500
AA00
5400
2800
ENDCHAR
STARTCHAR char58099
ENCODING 58099
SWIDTH 1152 0
DWIDTH 12 0
BBX 7 10 2 -1
BITMAP
FE
BA
FE
BA
FE
BA
FE
BA
FE
BA
ENDCHAR
STARTCHAR char58100
ENCODING 58100
SWIDTH 1152 0
DWIDTH 12 0
BBX 9 9 1 -1
BITMAP
7F00
0000
7F00
FF80
FF80
FF80
4100
4100
7F00
ENDCHAR
STARTCHAR char58101
ENCODING 58101
SWIDTH 1152 0
DWIDTH 12 0
BBX 8 9 2 -1
BITMAP
3C
FF
00
7E
7E
7E
7E
7E
7E
ENDCHAR
STARTCHAR char58101
ENCODING 58102
SWIDTH 1152 0
DWIDTH 12 0
BBX 12 9 0 -1
BITMAP
3C00
FF00
0000
7EF0
7E00
7EC0
7E00
7EE0
7E00
ENDCHAR
STARTCHAR char58103
ENCODING 58103
SWIDTH 1152 0
DWIDTH 12 0
BBX 10 6 1 1
BITMAP
8000
4400
2A00
1140
00C0
01C0
ENDCHAR
STARTCHAR char58104
ENCODING 58104
SWIDTH 1152 0
DWIDTH 12 0
BBX 10 6 1 1
BITMAP
01C0
00C0
1140
2A00
4400
8000
ENDCHAR
STARTCHAR char58105
ENCODING 58105
SWIDTH 1152 0
DWIDTH 12 0
BBX 9 9 1 -1
BITMAP
1C00
1C00
1C00
EB80
F780
EB80
1C00
1C00
1C00
ENDCHAR
STARTCHAR char58106
ENCODING 58106
SWIDTH 1152 0
DWIDTH 12 0
BBX 7 7 2 0
BITMAP
FE
EE
EE
82
EE
EE
FE
ENDCHAR
STARTCHAR char58106
ENCODING 58107
SWIDTH 1152 0
DWIDTH 12 0
BBX 9 9 2 -1
BITMAP
7F80
0080
FE80
EE80
EE80
8280
EE80
EE80
FE00
ENDCHAR
STARTCHAR char58106
ENCODING 58108
SWIDTH 1152 0
DWIDTH 12 0
BBX 9 9 2 -1
BITMAP
7F80
0080
FE80
FE80
D680
EE80
D680
FE80
FE00
ENDCHAR
STARTCHAR char58106
ENCODING 58109
SWIDTH 1152 0
DWIDTH 12 0
BBX 9 9 2 -1
BITMAP
7F80
0080
FE80
DE80
CE80
C680
CE80
DE80
FE00
ENDCHAR
STARTCHAR char58109
ENCODING 58110
SWIDTH 1152 0
DWIDTH 12 0
BBX 8 9 2 -1
BITMAP
07
83
45
28
10
28
45
83
07
ENDCHAR
STARTCHAR char58109
ENCODING 58111
SWIDTH 1152 0
DWIDTH 12 0
BBX 9 9 1 -1
BITMAP
8380
4180
2280
1400
0800
1400
2280
4180
8380
ENDCHAR
STARTCHAR char58112
ENCODING 58112
SWIDTH 1152 0
DWIDTH 12 0
BBX 9 8 1 0
BITMAP
E380
C180
A280
1000
0800
0800
0800
0800
ENDCHAR
STARTCHAR char58093
ENCODING 58113
SWIDTH 1152 0
DWIDTH 12 0
BBX 11 11 0 -2
BITMAP
FFE0
FFE0
C060
FFE0
C0E0
FFE0
C060
FFE0
FFE0
6000
C000
ENDCHAR
STARTCHAR char58114
ENCODING 58114
SWIDTH 1152 0
DWIDTH 12 0
BBX 11 8 1 0
BITMAP
0FE0
0FE0
0000
3F80
3F80
0000
FE00
FE00
ENDCHAR
STARTCHAR char58115
ENCODING 58115
SWIDTH 1152 0
DWIDTH 12 0
BBX 8 11 2 -2
BITMAP
DB
DB
00
DB
DB
00
DB
DB
00
18
18
ENDCHAR
STARTCHAR char58116
ENCODING 58116
SWIDTH 1152 0
DWIDTH 12 0
BBX 9 9 1 -1
BITMAP
7F00
0000
FF80
F780
F780
C180
E380
F780
FF80
ENDCHAR
STARTCHAR char58102
ENCODING 58117
SWIDTH 1152 0
DWIDTH 12 0
BBX 10 10 1 -1
BITMAP
3F00
4080
FFC0
F7C0
F3C0
F1C0
F3C0
F7C0
FFC0
7F80
ENDCHAR
STARTCHAR char58118
ENCODING 58118
SWIDTH 1152 0
DWIDTH 12 0
BBX 9 11 1 -2
BITMAP
0400
0A00
1100
2080
4100
8200
4400
2800
1000
C780
FF80
ENDCHAR
STARTCHAR char58119
ENCODING 58119
SWIDTH 1152 0
DWIDTH 12 0
BBX 9 9 1 -1
BITMAP
F000
8000
8580
E680
8480
8480
F480
0000
FF80
ENDCHAR
STARTCHAR char58119
ENCODING 58120
SWIDTH 1152 0
DWIDTH 12 0
BBX 10 9 1 -1
BITMAP
7000
2080
2080
2380
2480
2480
7380
0000
FFC0
ENDCHAR
STARTCHAR char58121
ENCODING 58121
SWIDTH 1152 0
DWIDTH 12 0
BBX 9 5 1 1
BITMAP
DF80
9080
9E80
8080
FF80
ENDCHAR
STARTCHAR char58122
ENCODING 58122
SWIDTH 1152 0
DWIDTH 12 0
BBX 7 10 3 -1
BITMAP
FE
82
82
82
82
82
82
FE
C6
FE
ENDCHAR
STARTCHAR char58123
ENCODING 58123
SWIDTH 1152 0
DWIDTH 12 0
BBX 10 5 1 1
BITMAP
FFC0
DFC0
8D40
DFC0
FFC0
ENDCHAR
STARTCHAR char58124
ENCODING 58124
SWIDTH 1152 0
DWIDTH 12 0
BBX 8 11 2 -2
BITMAP
FF
E7
E7
FF
E7
C3
99
99
C3
E7
FF
ENDCHAR
STARTCHAR U+E016
ENCODING 58125
SWIDTH 1152 0
DWIDTH 12 0
BBX 8 10 2 -1
BITMAP
3C
3C
42
91
91
9D
81
42
3C
3C
ENDCHAR
STARTCHAR U+E016
ENCODING 58126
SWIDTH 1152 0
DWIDTH 12 0
BBX 8 9 2 -1
BITMAP
42
BD
42
91
91
9D
81
42
3C
ENDCHAR
STARTCHAR char58127
ENCODING 58127
SWIDTH 1152 0
DWIDTH 12 0
BBX 10 5 1 1
BITMAP
8F80
AFC0
AFC0
8FC0
FFC0
ENDCHAR
STARTCHAR char58128
ENCODING 58128
SWIDTH 1152 0
DWIDTH 12 0
BBX 10 10 1 -1
BITMAP
0C00
3F00
7F80
FFC0
FFC0
0400
0400
0400
1400
0800
ENDCHAR
STARTCHAR U+E05C
ENCODING 58129
SWIDTH 1152 0
DWIDTH 12 0
BBX 10 8 1 0
BITMAP
1FC0
1FC0
1040
1040
1040
1040
F3C0
F3C0
ENDCHAR
ENDFONT
